<?xml version="1.0" encoding="UTF-8"?> <svg xmlns="http://www.w3.org/2000/svg" width="187" height="40" viewBox="0 0 187 40" fill="none"><g clip-path="url(#clip0_31785_49957)"><path d="M80.3182 0.0987923C78.6133 0.0987923 77.9609 0.123785 76.7265 0.617963C76.6936 0.631595 76.6606 0.645228 76.6299 0.65886C76.1219 0.880388 75.6456 1.17121 75.2205 1.51998C73.7657 0.613419 71.9358 0.118105 70.0285 0.118105C67.5189 0.118105 65.3423 0.81109 63.7601 2.40836C63.0793 3.09567 62.7417 3.69209 62.3087 4.45778C61.4562 1.89828 59.1046 0.105609 55.9699 0.105609C53.7614 0.105609 52.1043 1.25074 50.9802 3.13429C50.205 1.7949 49.2616 0.706574 47.5249 0.358946C46.6588 0.185131 46.1087 0.120377 44.6084 0.120377H41.6236C39.9176 0.120377 39.264 0.14537 38.0285 0.639548C37.9956 0.65318 37.9626 0.666813 37.9331 0.679309C37.3204 0.945143 36.7646 1.3064 36.2827 1.74492C35.4632 1.18826 34.5539 0.763376 33.5856 0.490726C33.5651 0.485046 33.5435 0.479366 33.5174 0.47255C33.5174 0.47255 33.4639 0.458917 33.4446 0.454373C32.5433 0.237389 28.1208 0.119241 28.1208 0.119241C26.3647 0.119241 24.8882 0.386211 23.3982 1.69266C21.6251 0.675901 19.5598 0.119241 17.5515 0.119241C11.1797 0.119241 5.99559 5.27005 5.99559 11.6012C5.99559 13.4655 6.44001 15.2706 7.29246 16.9008C6.07743 17.0542 4.94082 17.5711 4.03154 18.3959C2.95517 19.3717 2.2448 20.7043 1.97997 22.2391L0.202315 32.2158C0.196632 32.2453 0.182993 32.3385 0.18072 32.3465C0.1739 32.3896 0.168217 32.4339 0.163671 32.4748C0.135255 32.7338 0.0954742 33.0883 0.0954742 33.4939C0.0954742 35.2025 0.693329 36.7895 1.77879 37.963C2.93699 39.215 4.54187 39.9045 6.29793 39.9045C7.48455 39.9045 8.62115 39.566 9.58954 38.9446C10.5568 39.5774 11.6945 39.9045 12.9528 39.9045C14.211 39.9045 15.3101 39.5614 16.2955 38.9173C17.2957 39.5558 18.4892 39.9045 19.7485 39.9045C21.4784 39.9045 23.0663 39.2093 24.1949 38.0335C26.0499 39.2434 28.0344 39.8932 30.3076 39.8932C32.7979 39.8932 35.17 39.1025 37.1409 37.6393C38.3093 39.0536 40.0847 39.8932 41.9248 39.8932C43.5604 39.8932 45.1141 39.2468 46.2712 38.1028C47.4305 39.2638 48.9309 39.8932 50.5744 39.8932C51.678 39.8932 52.1781 39.5967 53.1136 39.0536C54.0479 39.6012 55.1379 39.8932 56.2972 39.8932C57.8873 39.8932 59.3285 39.3183 60.4197 38.3073C61.4835 39.3104 62.9748 39.8932 64.5399 39.8932C65.6265 39.8932 66.7005 39.5876 67.6428 39.0275C67.886 39.1695 68.1418 39.2945 68.4077 39.4047C68.435 39.416 68.5089 39.4444 68.5464 39.4581C69.6489 39.8636 70.5059 39.8932 71.7857 39.8932H75.0785C76.4219 39.8932 77.9848 39.7887 79.5226 38.5333C79.5476 38.5129 79.5715 38.4924 79.5965 38.4708C80.0284 38.0971 80.4035 37.6597 80.7126 37.1792C81.856 38.8639 83.4132 39.9057 85.4318 39.9057C87.4504 39.9057 89.5736 38.756 90.6556 36.9747C91.5183 35.5933 91.6354 34.2516 91.6354 33.1201V30.8526L94.6247 26.5538C94.6463 26.5231 94.6667 26.4924 94.6883 26.4595C95.3737 25.403 95.7363 24.2067 95.7363 23.0014C95.7363 19.7512 93.82 16.9917 90.5818 16.8543C90.5352 15.4547 90.0203 14.1562 89.1053 13.111C89.2519 12.6055 89.3281 12.0783 89.3281 11.5433C89.3281 11.0514 89.2656 10.5674 89.144 10.105C90.0839 9.01785 90.609 7.60007 90.609 6.09141C90.609 3.35241 88.8064 1.03943 86.1297 0.336225C85.2761 0.109017 80.3194 0.0976562 80.3194 0.0976562L80.3182 0.0987923Z" fill="black"></path><path d="M85.4319 40.0011C83.5361 40.0011 81.9494 39.1093 80.7139 37.3508C80.4127 37.7984 80.058 38.1982 79.6591 38.5436C79.6341 38.5652 79.608 38.5868 79.5829 38.6072C78.0213 39.883 76.438 39.9898 75.0774 39.9898H71.7847C70.4935 39.9898 69.6297 39.9602 68.5124 39.549L68.4306 39.5195C68.4056 39.5092 68.3828 39.5001 68.3703 39.4945C68.1191 39.3911 67.8748 39.2718 67.6418 39.14C66.687 39.6967 65.6152 39.9909 64.5388 39.9909C62.9965 39.9909 61.5007 39.4263 60.4186 38.4402C59.3048 39.4411 57.8442 39.9909 56.2962 39.9909C55.1528 39.9909 54.0537 39.7058 53.1125 39.1661C52.1964 39.6978 51.6838 39.9909 50.5734 39.9909C48.9344 39.9909 47.4477 39.3854 46.2702 38.2391C45.0927 39.3695 43.5526 39.9909 41.9238 39.9909C40.0961 39.9909 38.3094 39.1627 37.1239 37.7722C35.136 39.2241 32.781 39.9909 30.3066 39.9909C28.1197 39.9909 26.1239 39.3911 24.2087 38.1585C23.038 39.3479 21.4569 40.0023 19.7486 40.0023C18.5052 40.0023 17.3129 39.6671 16.2968 39.0332C15.3045 39.6671 14.1509 40.0023 12.9529 40.0023C11.7549 40.0023 10.5671 39.6853 9.58852 39.0605C8.60649 39.6774 7.46988 40.0023 6.29804 40.0023C4.51471 40.0023 2.88368 39.3013 1.7073 38.0301C0.605925 36.8384 -0.00102234 35.2286 -0.00102234 33.4962C-0.00102234 33.0849 0.0387588 32.7271 0.067174 32.4669C0.0717204 32.4237 0.0774034 32.3783 0.0842231 32.334C0.0853597 32.3249 0.100136 32.2306 0.105819 32.1999L1.88347 22.221C2.15284 20.6612 2.87345 19.3138 3.96573 18.3232C4.85456 17.5178 5.95138 16.9997 7.14368 16.8225C6.31737 15.1968 5.8991 13.4405 5.8991 11.6001C5.8991 5.21329 11.1263 0.0193127 17.5516 0.0193127C19.5452 0.0193127 21.6149 0.570293 23.3869 1.57228C24.8815 0.285146 26.3625 0.0193127 28.1209 0.0193127C28.3039 0.0238569 32.5661 0.139733 33.4675 0.356717C33.4868 0.361261 33.5413 0.374894 33.5413 0.374894L33.6107 0.39307C34.562 0.661176 35.4577 1.07356 36.2737 1.61886C36.7545 1.19284 37.299 0.845214 37.8934 0.587333C37.923 0.573701 37.9571 0.560068 37.9911 0.546436C39.2448 0.0454417 39.9029 0.0193127 41.6237 0.0193127H44.6085C46.0917 0.0193127 46.643 0.0795229 47.5443 0.260153C49.3515 0.62255 50.3029 1.80062 50.9825 2.94235C52.1794 1.02016 53.9002 0.0056802 55.97 0.0056802C58.9524 0.0056802 61.3689 1.61545 62.3293 4.22266C62.718 3.53877 63.059 2.97643 63.6909 2.33797C65.2163 0.799773 67.3485 0.0193127 70.0286 0.0193127C71.9165 0.0193127 73.7544 0.508946 75.2127 1.3996C75.6355 1.06106 76.0993 0.781596 76.5914 0.56802C76.6232 0.554388 76.6573 0.53962 76.6903 0.525987C77.9417 0.0249929 78.5987 0 80.3183 0C80.5218 0 85.2967 0.0147685 86.1537 0.241977C88.8758 0.956546 90.7046 3.30588 90.7046 6.09032C90.7046 7.59216 90.1886 9.02357 89.2498 10.1289C89.3657 10.5868 89.4248 11.0616 89.4248 11.5422C89.4248 12.067 89.3532 12.5862 89.2123 13.0861C90.1045 14.1244 90.6092 15.3922 90.6739 16.7611C93.7155 16.9372 95.8319 19.4888 95.8319 23.0003C95.8319 24.2238 95.4636 25.4382 94.768 26.5107C94.7464 26.5436 94.7248 26.5754 94.7032 26.6072L91.731 30.881V33.119C91.731 34.263 91.6128 35.6228 90.7365 37.0247C89.6385 38.8322 87.5551 40.0011 85.4308 40.0011H85.4319ZM80.7105 37.0031L80.7923 37.1247C82.0005 38.906 83.5622 39.8092 85.4319 39.8092C87.4903 39.8092 89.5089 38.6765 90.5728 36.9247C91.4241 35.5626 91.5378 34.2369 91.5378 33.1201V30.8219L94.5441 26.4993C94.5645 26.4698 94.585 26.4391 94.6055 26.4073C95.2806 25.3667 95.6375 24.1886 95.6375 23.0026C95.6375 19.5672 93.5564 17.0781 90.5762 16.952L90.4864 16.9486L90.483 16.8588C90.4364 15.4831 89.934 14.2096 89.0304 13.1758L88.9952 13.136L89.01 13.0849C89.1554 12.5862 89.2293 12.067 89.2293 11.5433C89.2293 11.0616 89.1679 10.5868 89.0486 10.1301L89.0361 10.0812L89.0691 10.0426C89.9988 8.96791 90.5103 7.5649 90.5103 6.09145C90.5103 3.39676 88.7394 1.12127 86.1025 0.43056C85.2694 0.209032 80.3661 0.194263 80.3161 0.194263C78.6248 0.194263 77.9781 0.219256 76.7608 0.706618C76.7289 0.719114 76.6971 0.732746 76.6664 0.746379C76.1686 0.962227 75.7026 1.24737 75.2786 1.59387L75.2252 1.63704L75.1661 1.60068C73.7294 0.705481 71.9029 0.213576 70.0252 0.213576C67.3985 0.213576 65.3129 0.974723 63.8251 2.47543C63.1545 3.15138 62.818 3.74666 62.3918 4.49986L62.285 4.68844L62.2145 4.48623C61.3336 1.84266 58.9399 0.199943 55.9666 0.199943C53.8911 0.199943 52.2396 1.20307 51.0598 3.18091L50.9757 3.32178L50.8939 3.17978C50.1972 1.97558 49.3038 0.811133 47.5034 0.449872C46.6157 0.27265 46.0736 0.21244 44.6062 0.21244H41.6215C39.9291 0.21244 39.2812 0.237433 38.0616 0.724794C38.0298 0.737291 37.9968 0.750923 37.9684 0.76342C37.3694 1.02357 36.8227 1.37688 36.3453 1.81199L36.2885 1.86311L36.226 1.81994C35.4099 1.26555 34.512 0.847487 33.5561 0.578245L33.4902 0.560068C33.4902 0.560068 33.4379 0.546436 33.4197 0.541892C32.5377 0.329452 28.1595 0.211304 28.1152 0.210168C26.383 0.210168 24.927 0.473729 23.4585 1.75973L23.4062 1.80517L23.346 1.77109C21.5899 0.764556 19.5304 0.210168 17.547 0.210168C11.2286 0.210168 6.08777 5.31781 6.08777 11.5956C6.08777 13.4507 6.52082 15.2184 7.37327 16.8498L7.43806 16.9725L7.30053 16.9895C6.09459 17.1417 4.98527 17.6507 4.09189 18.4595C3.03144 19.4206 2.33243 20.7316 2.06987 22.2482L0.292222 32.2272C0.286539 32.2568 0.2729 32.3488 0.271763 32.3556C0.26608 32.3965 0.260397 32.4397 0.25585 32.4805C0.227435 32.7373 0.188791 33.0883 0.188791 33.4894C0.188791 35.1741 0.777552 36.7373 1.84596 37.8927C2.98598 39.1253 4.56586 39.8035 6.29463 39.8035C7.45056 39.8035 8.57126 39.4763 9.53396 38.8583L9.58624 38.8242L9.63853 38.8583C10.5967 39.4854 11.7106 39.8023 12.9495 39.8023C14.1884 39.8023 15.267 39.4661 16.2388 38.831L16.2911 38.7969L16.3434 38.8299C17.3402 39.4661 18.5154 39.8023 19.7441 39.8023C21.4274 39.8023 22.9811 39.148 24.1212 37.9608L24.1768 37.9029L24.2439 37.946C26.1477 39.1866 28.13 39.7898 30.3032 39.7898C32.7662 39.7898 35.1099 39.0173 37.0785 37.5552L37.1523 37.5007L37.2103 37.5711C38.3583 38.9605 40.1189 39.7898 41.9204 39.7898C43.5298 39.7898 45.0495 39.1639 46.1997 38.0267L46.2679 37.9597L46.3361 38.0278C47.4875 39.1809 48.9526 39.7898 50.5711 39.7898C51.6384 39.7898 52.1339 39.5013 53.0353 38.9787L53.1103 38.9344L53.1591 38.9628C54.0809 39.5036 55.1653 39.7887 56.2939 39.7887C57.8238 39.7887 59.265 39.2343 60.3516 38.2289L60.4175 38.1676L60.4834 38.2289C61.5348 39.2195 63.0124 39.7887 64.5366 39.7887C65.5959 39.7887 66.6518 39.4945 67.5895 38.9367L67.6384 38.9071L67.6872 38.9355C67.9259 39.0741 68.1794 39.1991 68.4408 39.307C68.4669 39.3184 68.5397 39.3456 68.5761 39.3593L68.5965 39.3672C69.674 39.7592 70.5197 39.7876 71.7802 39.7876H75.0729C76.4005 39.7876 77.9428 39.6842 79.4557 38.4493C79.4795 38.43 79.5034 38.4095 79.5273 38.3891C79.9478 38.0256 80.3172 37.5984 80.6252 37.1179L80.7048 36.9952L80.7105 37.0031Z" fill="black"></path><path d="M79.3203 1.79084C76.6095 1.79084 75.2796 3.62327 75.2796 3.62327L74.1794 2.93824C73.0098 2.21004 71.5061 1.80901 69.9444 1.80901C67.886 1.80901 65.1764 2.38271 63.6851 5.23986L62.1587 8.23219C62.1587 8.23219 60.4072 4.55482 60.389 4.51847C59.3194 2.30319 58.1499 1.79084 56.4472 1.79084C54.3138 1.79084 53.1749 2.48041 52.3259 3.9425L51.1222 6.31569L49.6151 3.89365C48.8058 2.6406 48.067 2.16346 46.9463 1.9442C46.3258 1.82265 45.9916 1.81015 44.5242 1.81015H41.5395C39.8858 1.81015 39.5198 1.83855 38.6207 2.19868C38.6037 2.20549 38.5877 2.21231 38.5707 2.22026C38.1445 2.40543 37.7569 2.6565 37.417 2.96437L36.3623 3.92432L35.1825 3.12228C34.5198 2.67127 33.789 2.33273 33.0161 2.11461L32.9377 2.09416C32.1546 1.90558 31.4851 1.81015 30.0052 1.81015H28.0378C26.6147 1.81015 25.5816 1.99419 24.5075 2.93483L23.5357 3.78572L22.415 3.14386C20.9135 2.28388 19.1563 1.81015 17.4673 1.81015C12.0935 1.81015 7.72096 6.14983 7.72096 11.4835C7.72096 16.097 10.9239 18.8905 10.9239 18.8905C10.9239 18.8905 6.88442 17.8953 5.1636 19.6165C4.42367 20.356 3.87582 21.291 3.67692 22.4372L1.9004 32.4128C1.89699 32.4355 1.89017 32.4787 1.88676 32.4992C1.88449 32.5185 1.88108 32.5378 1.87881 32.5582C1.8538 32.7866 1.82198 33.0717 1.82198 33.3785C1.82198 34.6304 2.24934 35.7812 3.0245 36.6196C3.83604 37.4966 4.96924 37.9806 6.21609 37.9806C7.04354 37.9806 7.84371 37.7477 8.53022 37.3069L9.51679 36.6741L10.4977 37.316C11.1728 37.7568 11.9719 37.9806 12.8709 37.9806C13.77 37.9806 14.5213 37.7477 15.2226 37.2887L16.2012 36.6491L17.1866 37.2785C17.9072 37.7386 18.7642 37.9817 19.6655 37.9817C20.8772 37.9817 21.9922 37.5148 22.806 36.6673L23.8437 35.5846L25.0997 36.4037C26.6716 37.4284 28.3174 37.9703 30.2235 37.9703C32.316 37.9703 34.3062 37.3148 35.9781 36.0731L37.3579 35.0496L38.4525 36.3731C39.2788 37.3728 40.5461 37.9703 41.8419 37.9703C42.9978 37.9703 44.0901 37.5205 44.9164 36.7025L46.1962 35.4358L47.4692 36.7093C48.2921 37.5341 49.3378 37.9692 50.4914 37.9692C51.2666 37.9692 51.4518 37.7636 52.1224 37.3739L53.0351 36.8434L53.9456 37.3773C54.6048 37.7636 55.389 37.9681 56.2131 37.9681C57.3258 37.9681 58.326 37.5863 59.1069 36.8638L60.3469 35.7153L61.5767 36.8752C62.3132 37.5693 63.3623 37.9681 64.4546 37.9681C65.2059 37.9681 65.9595 37.7568 66.6323 37.3569L67.5473 36.8127L68.4668 37.3478C68.6385 37.4478 68.8226 37.5386 69.0044 37.6136C69.0294 37.6238 69.1079 37.6534 69.1079 37.6534C69.8933 37.9385 70.5048 37.9681 71.7005 37.9681H74.9932C76.1173 37.9681 77.2153 37.8954 78.2882 37.0195C78.3007 37.0092 78.3144 36.9979 78.328 36.9865C78.6235 36.7309 78.8849 36.4276 79.1043 36.0856L80.5853 33.7772L82.1243 36.0459C82.9335 37.2387 83.9303 37.9794 85.3466 37.9794C86.7628 37.9794 88.2745 37.1512 89.0246 35.9186L89.036 35.8993C89.6554 34.9076 89.7407 33.9215 89.7407 33.0024V30.168L93.0527 25.4057C93.0641 25.3898 93.0743 25.3739 93.0846 25.358C93.5801 24.5946 95.1532 22.21 92.5526 19.8016C90.1726 17.5977 87.8096 19.1336 87.8096 19.1336C87.8096 19.1336 90.1055 16.7002 87.6584 14.1828L87.0071 13.4375L87.2845 12.4867C87.3845 12.1436 87.4356 11.7857 87.4356 11.4245C87.4356 11.0893 87.3936 10.761 87.3106 10.4463L87.0685 9.525L87.6914 8.80362C88.3517 8.03906 88.7155 7.03367 88.7155 5.97147C88.7155 4.06633 87.4572 2.45656 85.5784 1.96351C84.9681 1.80106 84.9817 1.78516 83.5144 1.78516H79.3203V1.79084Z" fill="white"></path><path d="M85.3477 38.077C84.0088 38.077 82.9597 37.4488 82.0458 36.1014L80.5887 33.9532L79.1873 36.1378C78.9634 36.4877 78.6951 36.7978 78.3928 37.0591C78.3792 37.0705 78.3667 37.0819 78.3542 37.0921C77.2528 37.9907 76.1366 38.0645 74.9955 38.0645H71.7027C70.4923 38.0645 69.8785 38.0339 69.0772 37.743C69.076 37.743 68.9965 37.7124 68.9703 37.7021C68.7828 37.6249 68.593 37.5317 68.4202 37.4306L67.5496 36.9239L66.6835 37.4386C65.9958 37.8475 65.2252 38.0634 64.4569 38.0634C63.3396 38.0634 62.2666 37.6556 61.5119 36.9444L60.3469 35.847L59.1728 36.9342C58.3749 37.6726 57.352 38.0634 56.2142 38.0634C55.3731 38.0634 54.5718 37.8544 53.8978 37.459L53.0351 36.9535L52.1702 37.4556C52.0599 37.5192 51.9633 37.5783 51.8747 37.6328C51.4177 37.9112 51.1654 38.0645 50.4914 38.0645C49.3116 38.0645 48.2421 37.6192 47.3998 36.7763L46.195 35.5698L44.9834 36.7683C44.1389 37.6033 43.0228 38.0634 41.8407 38.0634C40.5166 38.0634 39.2208 37.4533 38.3763 36.4309L37.3409 35.1778L36.0349 36.1469C34.3459 37.3999 32.3364 38.0634 30.2235 38.0634C28.3731 38.0634 26.6795 37.5465 25.0474 36.482L23.8585 35.7061L22.8753 36.7308C22.0445 37.5976 20.9044 38.0747 19.6655 38.0747C18.746 38.0747 17.8708 37.826 17.1343 37.3568L16.2012 36.7615L15.2748 37.367C14.5565 37.8373 13.7472 38.0747 12.8698 38.0747C11.9923 38.0747 11.1353 37.8453 10.4443 37.3943L9.51566 36.7876L8.58137 37.3874C7.88008 37.8373 7.06173 38.0759 6.21609 38.0759C4.94309 38.0759 3.78376 37.5817 2.95404 36.6842C2.16182 35.8277 1.7265 34.6541 1.7265 33.3772C1.7265 33.0648 1.75833 32.7774 1.78333 32.5468C1.7856 32.5252 1.78788 32.5047 1.79129 32.4843L1.80493 32.3957L3.58144 22.4201C3.77012 21.3295 4.27932 20.3627 5.09426 19.5471C6.56276 18.0793 9.6009 18.5246 10.6148 18.7234C9.86005 17.9487 7.62435 15.3278 7.62435 11.4812C7.62435 6.09406 12.0401 1.71122 17.4673 1.71122C19.1723 1.71122 20.9465 2.18949 22.4627 3.05856L23.5243 3.66634L24.4438 2.86089C25.5407 1.8998 26.592 1.71235 28.0378 1.71235H30.0052C31.4953 1.71235 32.1693 1.80892 32.9604 1.99977L33.04 2.02022C33.8265 2.24175 34.5642 2.58483 35.2359 3.04152L36.3532 3.8004L37.3523 2.89156C37.6989 2.57574 38.0956 2.32014 38.5321 2.13042C38.5502 2.12246 38.5673 2.11565 38.5843 2.10883C39.5004 1.74303 39.871 1.71349 41.5395 1.71349H44.5242C45.9848 1.71349 46.3269 1.72485 46.9645 1.84981C48.1705 2.08611 48.9104 2.62573 49.6958 3.84243L51.1131 6.12019L52.2395 3.89923C53.1499 2.33263 54.3684 1.69531 56.4472 1.69531C58.1044 1.69531 59.3569 2.16109 60.4754 4.47748C60.4913 4.51042 61.8075 7.27327 62.1609 8.01511L63.5987 5.19773C64.8058 2.88588 66.9404 1.71463 69.9444 1.71463C71.5243 1.71463 73.0462 2.12019 74.2306 2.85748L75.258 3.49707C75.5422 3.15626 76.8993 1.69531 79.3203 1.69531H83.5143C84.926 1.69531 84.9828 1.71008 85.5227 1.85549L85.6034 1.87708C87.522 2.38035 88.8121 4.02874 88.8121 5.97819C88.8121 7.06311 88.4404 8.09122 87.7641 8.87282L87.1742 9.55558L87.4038 10.4281C87.4891 10.7496 87.5322 11.087 87.5322 11.43C87.5322 11.8015 87.48 12.1673 87.3777 12.5195L87.1151 13.4193L87.7323 14.1247C89.6713 16.1196 88.6825 18.0872 88.1483 18.8609C88.9325 18.5258 90.7818 18.0339 92.6186 19.7356C95.2634 22.1838 93.6915 24.6047 93.1755 25.4011L93.1664 25.4158C93.1562 25.4318 93.1448 25.4488 93.1334 25.4658L89.8384 30.2031V33.008C89.8384 33.9407 89.7509 34.9438 89.1189 35.956L89.1076 35.9742C88.3415 37.2341 86.831 38.0816 85.3477 38.0816V38.077ZM80.583 33.6033L82.205 35.9935C83.0802 37.2841 84.0792 37.8839 85.3477 37.8839C86.7662 37.8839 88.2108 37.0739 88.9428 35.8697L88.9541 35.8504C89.5611 34.8791 89.6452 33.9089 89.6452 33.0046V30.1395L92.9743 25.3522C92.9845 25.3375 92.9948 25.3216 93.005 25.3068L93.0141 25.292C93.5085 24.5297 95.0134 22.2111 92.4878 19.8731C90.193 17.7487 87.9573 19.1551 87.863 19.2153L87.1947 19.6482L87.7402 19.0688C87.8312 18.9722 89.9418 16.6717 87.5902 14.252L86.9003 13.4636L87.1924 12.4627C87.2901 12.1287 87.339 11.7799 87.339 11.4266C87.339 11.0995 87.2981 10.7791 87.2174 10.4735L86.9617 9.50332L87.6186 8.74445C88.2642 7.99807 88.62 7.01426 88.62 5.97591C88.62 4.11508 87.389 2.5428 85.5557 2.06225L85.4739 2.04067C84.9453 1.89866 84.9021 1.8873 83.5155 1.8873H79.3214C76.6947 1.8873 75.3717 3.6618 75.3581 3.67998L75.3058 3.75268L74.1294 3.01994C72.9757 2.30082 71.4891 1.90548 69.9455 1.90548C67.0188 1.90548 64.9411 3.04266 63.7715 5.2852L62.1564 8.45135L62.0723 8.27526C62.0552 8.23891 60.3208 4.5979 60.3026 4.56154C59.2228 2.32582 58.0714 1.88844 56.4484 1.88844C54.4491 1.88844 53.2784 2.49736 52.41 3.99125L51.1313 6.51326L49.5333 3.94467C48.7808 2.78023 48.075 2.26333 46.9282 2.0384C46.3064 1.91684 45.9689 1.90662 44.5242 1.90662H41.5395C39.9017 1.90662 39.5391 1.93502 38.6559 2.28833C38.64 2.29401 38.6253 2.30082 38.6082 2.30877C38.1922 2.48941 37.8126 2.73479 37.4818 3.03584L36.3702 4.04692L35.1268 3.20284C34.4721 2.75751 33.7526 2.42351 32.9888 2.2088L32.9127 2.18835C32.1386 2.00204 31.4749 1.90662 30.0052 1.90662H28.0378C26.6386 1.90662 25.6225 2.08725 24.5711 3.00744L23.5482 3.90378L22.3673 3.2267C20.8806 2.37466 19.1404 1.90548 17.4685 1.90548C12.148 1.90548 7.81871 6.20199 7.81871 11.4823C7.81871 15.9992 10.9569 18.7893 10.9887 18.8166L11.2876 19.0779L10.9012 18.9824C10.8614 18.9722 6.89465 18.0202 5.23179 19.6834C4.44526 20.4695 3.95425 21.4011 3.77239 22.4531L1.99588 32.4286L1.98224 32.5127C1.97996 32.5297 1.97769 32.5479 1.97542 32.5672C1.95041 32.7944 1.91972 33.0762 1.91972 33.3772C1.91972 34.6053 2.338 35.7334 3.09611 36.5536C3.88946 37.4113 4.99765 37.8839 6.21609 37.8839C7.02536 37.8839 7.80734 37.6567 8.47794 37.2261L9.51679 36.5593L10.55 37.2352C11.2092 37.6658 11.99 37.885 12.8698 37.885C13.7495 37.885 14.4826 37.6578 15.1691 37.208L16.2 36.5331L17.2389 37.1955C17.9447 37.6453 18.7835 37.8839 19.6655 37.8839C20.851 37.8839 21.941 37.4272 22.7355 36.599L23.8289 35.4596L25.1519 36.3218C26.775 37.3795 28.3856 37.8725 30.2235 37.8725C32.2955 37.8725 34.2652 37.2227 35.9201 35.9947L37.3727 34.9166L38.5252 36.3105C39.3334 37.2886 40.5723 37.8725 41.8407 37.8725C42.9705 37.8725 44.0389 37.4318 44.847 36.6331L46.195 35.2994L47.5351 36.6411C48.3398 37.4465 49.3616 37.8725 50.4891 37.8725C51.1086 37.8725 51.3302 37.7373 51.7724 37.4692C51.8622 37.4147 51.9599 37.3545 52.0713 37.2897L53.0329 36.7308L53.9922 37.2932C54.6366 37.6715 55.4038 37.8714 56.2108 37.8714C57.2997 37.8714 58.2772 37.4988 59.0387 36.7933L60.3458 35.5834L61.6415 36.8047C62.361 37.4829 63.3851 37.8714 64.4535 37.8714C65.1877 37.8714 65.9242 37.6646 66.5823 37.2738L67.5462 36.7013L68.5146 37.2648C68.6805 37.3613 68.8624 37.4511 69.0397 37.5238C69.0635 37.5329 69.1408 37.5624 69.1408 37.5624C69.9115 37.8419 70.5116 37.8714 71.6993 37.8714H74.9921C76.098 37.8714 77.1778 37.801 78.2269 36.9444L78.2644 36.9126C78.5531 36.6627 78.8088 36.3673 79.0225 36.0333L80.5819 33.6022L80.583 33.6033Z" fill="black"></path><path d="M92.3674 38.4128C92.3674 37.5778 93.0448 36.9609 93.8461 36.9609C94.6474 36.9609 95.3169 37.5767 95.3169 38.4128C95.3169 39.2489 94.6394 39.8715 93.8461 39.8715C93.0527 39.8715 92.3674 39.2557 92.3674 38.4128ZM93.8461 39.6284C94.5042 39.6284 95.0248 39.1126 95.0248 38.4128C95.0248 37.713 94.5053 37.2041 93.8461 37.2041C93.1869 37.2041 92.6606 37.7232 92.6606 38.4128C92.6606 39.1024 93.18 39.6284 93.8461 39.6284ZM93.5381 39.2546H93.2835V37.5767H93.9234C94.3201 37.5767 94.5156 37.7232 94.5156 38.0538C94.5156 38.3537 94.3269 38.4855 94.0802 38.5162L94.5576 39.2546H94.2735L93.8302 38.5275H93.5381V39.2546ZM93.8427 38.3128C94.0586 38.3128 94.2507 38.2969 94.2507 38.039C94.2507 37.8311 94.0621 37.7925 93.8847 37.7925H93.5381V38.3117H93.8427V38.3128Z" fill="black"></path><path d="M22.1683 32.9283L20.3884 22.863C20.2486 22.0292 20.0418 21.5838 19.5973 21.1624C19.1495 20.7386 18.4551 20.4648 17.8277 20.4648C16.8752 20.4648 15.9693 21.0147 15.5704 21.8372L12.9539 27.397L10.6193 22.1882C10.184 21.1578 9.15422 20.466 8.05739 20.466C6.76053 20.466 5.79782 21.3862 5.54322 22.8642L3.76443 32.8511L3.76103 32.8704C3.73829 33.0749 3.71556 33.2862 3.71556 33.493C3.71556 35.1379 4.77829 36.2865 6.3002 36.2865C7.62548 36.2865 8.60637 35.3674 8.86097 33.8883L9.29288 31.3447L10.3454 34.1894C10.8841 35.6389 11.6888 36.2853 12.9539 36.2853C14.1496 36.2853 15.085 35.5322 15.5863 34.1655L16.6138 31.347L17.2116 34.3325C17.4219 35.5015 18.4426 36.2853 19.7497 36.2853C21.159 36.2853 22.2638 35.1913 22.2638 33.7963C22.2638 33.602 22.2479 33.2953 22.1695 32.9272L22.1683 32.9283Z" fill="#ED2E38"></path><path d="M35.6974 22.8283C34.2039 21.3469 32.2125 20.5312 30.0916 20.5312C27.9707 20.5312 25.9839 21.3378 24.4973 22.8033C23.0117 24.2677 22.1934 26.224 22.1934 28.3131C22.1934 30.4023 23.0129 32.4608 24.4995 33.9558C25.9873 35.452 27.981 36.2756 30.1132 36.2756C32.2455 36.2756 34.1948 35.452 35.6905 33.9558C37.1863 32.4597 38.0104 30.4807 38.0104 28.3813C38.0104 26.2819 37.1886 24.3097 35.6951 22.8295L35.6974 22.8283ZM32.2114 30.5102C31.6476 31.0805 30.902 31.3941 30.1144 31.3941C28.4765 31.3941 27.1444 30.0422 27.1444 28.3802C27.1444 26.7181 28.4765 25.4798 30.1144 25.4798C31.7522 25.4798 33.0843 26.7908 33.0843 28.4029C33.0843 29.1936 32.774 29.9422 32.2114 30.5102Z" fill="#ED2E38"></path><path d="M51.9417 21.4583C51.4393 20.8607 50.7483 20.5324 49.9959 20.5324C49.1718 20.5324 48.3512 20.9709 47.9102 21.6434C47.5465 22.166 47.4476 22.6 47.4476 23.661V26.5966L43.3388 21.5503C42.7625 20.8357 42.1942 20.5312 41.4395 20.5312C40.6848 20.5312 39.9858 20.7903 39.5073 21.281C39.0276 21.7718 38.7742 22.458 38.7742 23.2646V33.0993C38.7742 34.2296 38.8867 34.6965 39.3004 35.2702L39.3072 35.2793C39.7925 35.903 40.5552 36.2745 41.3463 36.2745C42.1374 36.2745 42.8182 35.9394 43.3149 35.3486C43.765 34.7806 43.8946 34.3228 43.8946 33.3083V29.9979L47.9807 35.2328C48.5115 35.9235 49.1889 36.2745 49.9959 36.2745C50.8028 36.2745 51.5303 35.9201 51.9883 35.3259C52.4248 34.7522 52.5453 34.2535 52.5453 33.005V23.4963C52.5453 22.5511 52.3895 22.0195 51.9429 21.456L51.9417 21.4583Z" fill="#ED2E38"></path><path d="M66.6108 32.2774L63.4192 28.1945L66.0481 24.3706C66.2993 24.0059 66.4437 23.514 66.4437 23.0221C66.4437 21.6361 65.2616 20.4648 63.8613 20.4648C63.0054 20.4648 62.253 20.8863 61.7438 21.6509L58.8568 25.9088V23.3504C58.8568 22.4052 58.6659 21.8349 58.1771 21.3203C57.7089 20.7852 56.9883 20.466 56.2506 20.466C54.7435 20.466 53.691 21.6429 53.691 23.3277V33.3441C53.691 35.1527 54.6889 36.2763 56.2972 36.2763C57.9055 36.2763 58.8568 35.0891 58.8568 33.3214V30.5824L62.7497 35.5117C63.1214 35.9763 63.8249 36.2774 64.5399 36.2774C65.9265 36.2774 67.0995 35.0846 67.0995 33.6736C67.0995 33.1419 66.9336 32.6705 66.6108 32.2797V32.2774Z" fill="#ED2E38"></path><path d="M77.4688 31.9476C76.9084 31.4966 76.4197 31.3705 75.2853 31.3853L72.8689 31.416L72.853 30.1936L74.7466 30.1697C75.5752 30.1595 75.9468 30.0629 76.3367 29.7585L76.3469 29.7505C76.7766 29.3825 77.0187 28.8394 77.0107 28.2578C76.9959 27.1285 76.1639 26.4083 74.8887 26.4253L72.8041 26.4515L72.7893 25.3245L75.4194 25.2916C76.3697 25.2791 76.9255 25.1132 77.3983 24.6997C77.9325 24.2475 78.2325 23.5477 78.2235 22.7786C78.2098 21.6869 77.4938 20.8076 76.4015 20.5372C76.023 20.4418 75.8411 20.4259 74.4079 20.4441L71.2708 20.4838C69.7148 20.5032 69.6159 20.527 69.0226 20.7724C68.4441 21.0325 67.9826 21.5245 67.7883 22.0857C67.578 22.5935 67.561 22.7605 67.5769 24.0771L67.686 32.6758C67.6996 33.746 67.7235 33.8982 67.8019 34.2447C67.9758 35.141 68.4941 35.784 69.3 36.1044L69.3113 36.1089C69.7887 36.2771 70.1422 36.3112 71.3038 36.2953L75.3683 36.243C76.4663 36.2294 76.955 36.1419 77.5131 35.6738C78.0393 35.2069 78.3473 34.498 78.3383 33.7755C78.3292 33.0655 78.0211 32.418 77.4653 31.9465L77.4688 31.9476Z" fill="#ED2E38"></path><path d="M89.5566 20.4648C88.753 20.4648 87.9858 20.8681 87.3902 21.6054L85.4784 24.1059L83.661 21.6759C83.1006 20.9068 82.2777 20.4648 81.4014 20.4648C80.0023 20.4648 78.8634 21.5816 78.8634 22.9539C78.8634 23.5128 79.0373 24.04 79.376 24.5137L82.846 29.6463V33.1181C82.846 34.0917 82.9438 34.5347 83.2882 35.1005C83.7531 35.8207 84.5941 36.2865 85.4295 36.2865C86.2649 36.2865 87.1435 35.7969 87.572 35.0766C87.8994 34.562 88.0142 34.0496 88.0142 33.1181V29.7168L91.6491 24.491C91.9537 24.0218 92.1151 23.506 92.1151 23.0005C92.1151 21.6259 90.9421 20.4648 89.5543 20.4648H89.5566Z" fill="#ED2E38"></path><path d="M23.3572 11.1556C22.8594 10.5672 22.4059 10.4388 20.6578 10.3933L19.0313 10.3706C19.004 10.3706 18.9768 10.3706 18.9495 10.3706C17.032 10.3706 16.6297 11.3442 16.6297 12.161C16.6297 13.2823 17.4173 13.9514 18.7381 13.9514H19.5189L19.4689 13.981C18.796 14.3809 18.4073 14.5478 17.7435 14.5478C16.1023 14.5478 14.7679 13.2141 14.7679 11.5737C14.7679 9.93325 16.1159 8.59954 17.6526 8.59954C18.1152 8.59954 18.6483 8.73587 19.2325 9.00397C19.32 9.05055 20.3418 9.59244 20.3475 9.59471C20.4725 9.65719 20.7578 9.70604 20.9954 9.70604C22.3582 9.70604 23.5107 8.57568 23.5107 7.23743C23.5107 6.33882 23.0049 5.58335 21.9592 4.92558C20.6896 4.15535 19.1927 3.73047 17.7424 3.73047C13.3653 3.73047 9.8055 7.25901 9.8055 11.5953C9.8055 15.9315 13.3767 19.5055 17.7651 19.5055C19.0063 19.5055 20.2054 19.2102 21.3284 18.6262C22.6253 17.956 23.5516 17.0733 23.8051 16.2644C23.9153 15.9111 23.9176 15.8645 23.9608 14.6796L23.9631 14.6194L23.9858 13.3323C24.0085 12.3723 23.8142 11.7009 23.3572 11.1522V11.1556Z" fill="#ED2E38"></path><path d="M36.2509 15.2954L35.0234 13.3368L35.0313 13.3277C36.2134 12.0077 36.6953 10.8557 36.6953 9.34819C36.6953 8.11218 36.2998 6.94206 35.5507 5.96279C34.8063 4.99034 33.789 4.29963 32.6092 3.9679L32.5978 3.96449C31.9386 3.80545 31.3953 3.73047 30.0894 3.73047H27.9287C26.7125 3.73047 26.1874 3.88156 25.5907 4.40755C24.978 4.94944 24.7507 5.56858 24.7507 6.69554V16.3439C24.7507 17.3266 24.9371 18.0037 25.3577 18.5399C25.818 19.1159 26.5863 19.4726 27.3638 19.4726C28.8004 19.4726 29.8836 18.3593 29.8836 16.8836V14.6876L32.0511 18.2832C32.516 19.05 33.2696 19.4726 34.1743 19.4726C35.6133 19.4726 36.7408 18.3661 36.7408 16.954C36.7408 16.3905 36.5612 15.785 36.2498 15.2954H36.2509ZM30.5531 10.4115C30.5224 10.4115 30.4906 10.4115 30.4769 10.4104H29.8848C29.7734 10.4104 29.6836 10.3206 29.6836 10.2093V8.4848C29.6836 8.428 29.7075 8.37347 29.7495 8.33598C29.787 8.3019 29.8348 8.28372 29.8848 8.28372C29.8916 8.28372 29.8984 8.28372 29.9052 8.28372L29.9234 8.28599C30.1462 8.30871 30.3235 8.30871 30.4269 8.30871H30.4349C30.4644 8.30871 30.494 8.30758 30.5235 8.30758C31.3714 8.30758 31.8568 8.69497 31.8568 9.37091C31.8568 10.0469 31.3817 10.4115 30.5531 10.4115Z" fill="#ED2E38"></path><path d="M47.2805 15.259C46.727 14.8012 46.2394 14.6694 45.1073 14.6694H42.6932V13.4493H44.5856C45.4142 13.4493 45.7859 13.3584 46.1791 13.0585L46.1894 13.0505C46.6236 12.6893 46.8713 12.1497 46.8713 11.5692C46.8713 10.4399 46.0484 9.71059 44.7754 9.71059H42.6932V8.58591H45.321C46.2689 8.58591 46.8259 8.42686 47.3044 8.02016C47.8431 7.57483 48.1523 6.87844 48.1523 6.11047C48.1523 5.02101 47.4487 4.13263 46.3599 3.84862C45.9836 3.74865 45.8029 3.73047 44.3708 3.73047H41.2372C39.6823 3.73047 39.5834 3.75205 38.989 3.99062C38.4104 4.24169 37.9433 4.72678 37.7398 5.28684C37.5239 5.79125 37.5034 5.95824 37.5034 7.27378V15.8634C37.5034 16.9358 37.525 17.0846 37.5989 17.4266C37.7603 18.3263 38.2706 18.9773 39.0731 19.3079L39.0845 19.3124C39.5596 19.4874 39.913 19.5248 41.0724 19.5248H45.1312C46.2292 19.5248 46.7179 19.4442 47.2805 18.983C47.8124 18.524 48.1296 17.8196 48.1296 17.0971C48.1296 16.3746 47.8306 15.7373 47.2805 15.259Z" fill="#ED2E38"></path><path d="M63.5067 15.7528L58.5931 5.2774C58.1283 4.30154 57.2326 3.71875 56.1972 3.71875C55.1617 3.71875 54.2934 4.29359 53.8478 5.25354L48.9559 15.6188C48.7422 16.0687 48.6297 16.5356 48.6297 16.9684C48.6297 18.4021 49.7435 19.5256 51.1643 19.5256C52.393 19.5256 53.1613 18.9053 53.8183 17.383L53.8228 17.3728H58.6193L58.6238 17.3819C59.3456 18.9644 60.0275 19.5256 61.2312 19.5256C62.6554 19.5256 63.8136 18.3884 63.8136 16.9923C63.8136 16.5685 63.7045 16.1289 63.5078 15.7528H63.5067ZM57.186 13.7977C57.1485 13.8534 57.086 13.8875 57.0189 13.8875H55.3777C55.3106 13.8875 55.247 13.8534 55.2106 13.7977C55.1731 13.7409 55.1663 13.6705 55.1936 13.608L56.0142 11.6779C56.046 11.604 56.1188 11.5552 56.1995 11.5552C56.2802 11.5552 56.3529 11.6029 56.3847 11.6779L57.2053 13.608C57.2315 13.6705 57.2247 13.7409 57.1883 13.7977H57.186Z" fill="#ED2E38"></path><path d="M74.0805 10.8932C73.3679 10.2956 72.1369 9.69014 70.8742 9.31411C69.666 8.91877 69.3704 8.71201 69.3704 8.25873C69.3704 7.93723 69.6523 7.65435 69.974 7.65435C70.2263 7.65435 70.4673 7.73956 71.014 8.19284L71.0242 8.20079C71.8482 8.82448 72.404 9.05623 73.0735 9.05623C74.1908 9.05623 75.0023 8.19738 75.0023 7.01476C75.0023 5.17324 72.8837 3.73047 70.1786 3.73047C68.5725 3.73047 67.1927 4.2042 66.1879 5.0994C65.1832 5.99573 64.6524 7.22834 64.6524 8.66543C64.6524 9.72876 64.9184 10.5944 65.4662 11.3101C66.0118 12.0224 66.8165 12.5586 67.927 12.9483C68.3304 13.1051 68.7374 13.2403 69.1295 13.3709L69.1443 13.3755C69.9353 13.6697 70.0047 13.7151 70.1422 13.8072C70.4207 13.9923 70.5332 14.1798 70.5332 14.4536C70.5332 14.8489 70.2661 15.125 69.8842 15.125C69.5273 15.125 69.408 15.0545 68.2907 14.1945C67.6758 13.6901 67.1518 13.4743 66.5369 13.4743C65.2775 13.4743 64.291 14.4604 64.291 15.7191C64.291 16.754 64.8684 17.714 65.9186 18.4218C66.9722 19.1329 68.4043 19.5237 69.9524 19.5237C71.7994 19.5237 73.1394 19.0443 74.1703 18.0139C75.0728 17.0892 75.5911 15.7827 75.5911 14.4308C75.5911 13.0789 75.0126 11.6657 74.0817 10.8932H74.0805Z" fill="#ED2E38"></path><path d="M86.1183 15.227C85.5648 14.7703 85.0783 14.6385 83.9474 14.6385H81.5355V13.4195H83.4257C84.2531 13.4195 84.6248 13.3287 85.0169 13.0287L85.0272 13.0208C85.4602 12.6595 85.7091 12.1199 85.7091 11.5405C85.7091 10.4124 84.8874 9.68424 83.6144 9.68424H81.5344V8.5607H84.16C85.1067 8.5607 85.6625 8.40165 86.1411 7.99608C86.6798 7.55076 86.989 6.8555 86.989 6.08867C86.989 5.00034 86.2854 4.1131 85.1988 3.82909C84.8237 3.72911 84.643 3.71094 83.2109 3.71094H80.0807C78.5281 3.71094 78.4292 3.73252 77.8347 3.96995C77.2551 4.22216 76.7868 4.70838 76.5867 5.26504C76.3708 5.76831 76.3515 5.93531 76.3515 7.24971V15.8302C76.3515 16.9015 76.3731 17.0503 76.4458 17.3923C76.6072 18.2909 77.1164 18.9418 77.9177 19.2713L77.9291 19.2758C78.4042 19.4508 78.7565 19.4883 79.9159 19.4883H83.9713C85.0681 19.4883 85.5557 19.4076 86.1183 18.9475C86.6491 18.4897 86.9662 17.7853 86.9662 17.064C86.9662 16.3426 86.6673 15.7053 86.1183 15.2281V15.227Z" fill="#ED2E38"></path><path d="M113.661 12.0469C113.661 13.1432 113.457 14.1123 113.05 14.9563C112.643 15.8004 112.066 16.4491 111.317 16.9047C110.568 17.3602 109.715 17.5874 108.757 17.5874C107.799 17.5874 106.951 17.367 106.21 16.9274C105.469 16.4877 104.892 15.8584 104.477 15.0404C104.062 14.2225 103.845 13.2841 103.824 12.2242V11.5914C103.824 10.4906 104.027 9.51925 104.43 8.67858C104.835 7.83791 105.413 7.1881 106.167 6.73027C106.92 6.27245 107.779 6.04297 108.741 6.04297C109.704 6.04297 110.543 6.26904 111.288 6.72232C112.035 7.1756 112.615 7.81974 113.03 8.65586C113.443 9.49199 113.654 10.4497 113.659 11.53V12.0469H113.661ZM110.904 11.5766C110.904 10.4599 110.718 9.61241 110.345 9.03416C109.972 8.45478 109.438 8.16623 108.742 8.16623C107.384 8.16623 106.666 9.18526 106.589 11.2222L106.581 12.0481C106.581 13.1489 106.764 13.9953 107.128 14.5871C107.493 15.179 108.037 15.4744 108.757 15.4744C109.478 15.4744 109.97 15.1836 110.341 14.6019C110.711 14.0202 110.899 13.1841 110.904 12.0947V11.5778V11.5766Z" fill="black"></path><path d="M114.698 6.92961C114.698 6.55926 114.832 6.25594 115.099 6.01964C115.367 5.78335 115.714 5.66406 116.142 5.66406C116.569 5.66406 116.917 5.78221 117.184 6.01964C117.451 6.25594 117.585 6.55926 117.585 6.92961C117.585 7.29996 117.451 7.60328 117.184 7.84072C116.916 8.07701 116.569 8.19516 116.142 8.19516C115.714 8.19516 115.367 8.07701 115.099 7.84072C114.831 7.60442 114.698 7.3011 114.698 6.92961ZM117.461 17.4312H114.852V9.08241H117.461V17.4312Z" fill="black"></path><path d="M121.486 17.4343H118.876V5.58203H121.486V17.4343Z" fill="black"></path><path d="M136.207 13.6273C136.171 14.4089 135.961 15.0996 135.574 15.6995C135.188 16.2993 134.647 16.7628 133.949 17.0922C133.251 17.4217 132.455 17.5864 131.56 17.5864C130.082 17.5864 128.919 17.1047 128.07 16.1436C127.221 15.1814 126.796 13.8239 126.796 12.0687V11.5131C126.796 10.4123 126.988 9.44896 127.371 8.62306C127.754 7.79716 128.307 7.15984 129.027 6.70996C129.748 6.26009 130.582 6.03516 131.529 6.03516C132.893 6.03516 133.989 6.39415 134.817 7.11099C135.646 7.82896 136.118 8.81732 136.23 10.0783H133.528C133.508 9.39443 133.335 8.90252 133.011 8.60488C132.687 8.3061 132.193 8.15728 131.529 8.15728C130.865 8.15728 130.361 8.40948 130.047 8.91388C129.733 9.41829 129.568 10.2237 129.553 11.3291V12.1243C129.553 13.3229 129.703 14.1794 130.004 14.6941C130.305 15.2087 130.823 15.4654 131.56 15.4654C132.183 15.4654 132.659 15.3189 132.989 15.0258C133.318 14.7327 133.493 14.2669 133.514 13.6296H136.209L136.207 13.6273Z" fill="black"></path><path d="M139.79 9.98078C140.346 9.28098 141.056 8.93108 141.921 8.93108C142.842 8.93108 143.537 9.20373 144.006 9.74903C144.474 10.2943 144.714 11.0998 144.724 12.1643V17.4343H142.114V12.2256C142.114 11.7837 142.025 11.4576 141.844 11.2497C141.664 11.0418 141.357 10.9373 140.925 10.9373C140.39 10.9373 140.012 11.1066 139.79 11.4463V17.4343H137.188V5.58203H139.79V9.98078Z" fill="black"></path><path d="M150.674 17.433C150.581 17.2637 150.499 17.0138 150.427 16.6843C149.949 17.2864 149.279 17.5875 148.42 17.5875C147.633 17.5875 146.963 17.35 146.413 16.874C145.862 16.398 145.587 15.8005 145.587 15.0802C145.587 14.1748 145.921 13.4909 146.59 13.0274C147.26 12.5639 148.232 12.3333 149.509 12.3333H150.312V11.8913C150.312 11.1211 149.98 10.736 149.316 10.736C148.699 10.736 148.39 11.0416 148.39 11.6505H145.788C145.788 10.8439 146.131 10.1884 146.819 9.68515C147.506 9.18189 148.383 8.92969 149.448 8.92969C150.513 8.92969 151.355 9.18984 151.972 9.70901C152.59 10.2282 152.906 10.9405 152.922 11.8459V15.5414C152.933 16.3083 153.051 16.8945 153.277 17.3012V17.4318H150.675L150.674 17.433ZM149.045 15.7357C149.369 15.7357 149.639 15.6664 149.852 15.5278C150.066 15.3892 150.219 15.2324 150.312 15.0575V13.7226H149.555C148.649 13.7226 148.195 14.1293 148.195 14.9416C148.195 15.1779 148.275 15.3699 148.435 15.5165C148.594 15.663 148.798 15.7357 149.045 15.7357Z" fill="black"></path><path d="M156.591 9.08419L156.677 10.0646C157.253 9.30799 158.048 8.92969 159.062 8.92969C159.932 8.92969 160.582 9.18984 161.012 9.70901C161.441 10.2282 161.664 11.0109 161.68 12.0549V17.433H159.07V12.1629C159.07 11.7414 158.985 11.4313 158.816 11.2324C158.646 11.0348 158.337 10.9359 157.889 10.9359C157.38 10.9359 157.002 11.137 156.755 11.538V17.433H154.153V9.08419H156.592H156.591Z" fill="black"></path><path d="M162.603 13.1967C162.603 12.3526 162.741 11.6073 163.02 10.9587C163.297 10.3111 163.696 9.81012 164.217 9.45795C164.736 9.10577 165.341 8.92969 166.031 8.92969C166.9 8.92969 167.58 9.22279 168.069 9.80898L168.161 9.08419H170.524V17.1171C170.524 17.8533 170.352 18.4917 170.01 19.0348C169.668 19.5778 169.172 19.9947 168.523 20.2844C167.874 20.5752 167.123 20.7207 166.269 20.7207C165.657 20.7207 165.064 20.6048 164.49 20.373C163.916 20.1413 163.477 19.8402 163.173 19.4699L164.262 17.9419C164.746 18.5133 165.384 18.7985 166.177 18.7985C167.33 18.7985 167.906 18.2066 167.906 17.024V16.7616C167.407 17.3125 166.776 17.5875 166.015 17.5875C164.995 17.5875 164.172 17.1978 163.544 16.4185C162.916 15.6391 162.602 14.5963 162.602 13.2898V13.1967H162.603ZM165.212 13.3591C165.212 14.043 165.341 14.5849 165.599 14.9836C165.856 15.3824 166.217 15.5812 166.68 15.5812C167.24 15.5812 167.65 15.3938 167.907 15.0177V11.5062C167.655 11.1257 167.251 10.9348 166.696 10.9348C166.232 10.9348 165.869 11.1416 165.607 11.5562C165.344 11.9709 165.214 12.5707 165.214 13.358L165.212 13.3591Z" fill="black"></path><path d="M175.777 17.5875C174.495 17.5875 173.458 17.2057 172.666 16.4412C171.874 15.6766 171.477 14.6826 171.477 13.4591V13.2432C171.477 12.3889 171.635 11.6357 171.952 10.9825C172.268 10.3293 172.731 9.82375 173.338 9.4659C173.945 9.10805 174.666 8.92969 175.5 8.92969C176.673 8.92969 177.599 9.29436 178.279 10.0214C178.959 10.7496 179.298 11.7641 179.298 13.066V14.0771H174.126C174.219 14.5451 174.421 14.9132 174.736 15.1802C175.051 15.4472 175.457 15.5812 175.956 15.5812C176.78 15.5812 177.423 15.2927 177.886 14.7167L179.074 16.1208C178.751 16.5684 178.291 16.9251 177.696 17.1898C177.101 17.4545 176.461 17.5875 175.777 17.5875ZM175.484 10.9359C174.722 10.9359 174.269 11.4403 174.125 12.448H176.749V12.2469C176.759 11.83 176.653 11.5074 176.433 11.279C176.211 11.0495 175.895 10.9359 175.483 10.9359H175.484Z" fill="black"></path><path d="M184.476 15.0882C184.476 14.8666 184.36 14.6894 184.128 14.5554C183.896 14.4213 183.456 14.2827 182.807 14.1384C182.159 13.9942 181.623 13.8056 181.201 13.5716C180.779 13.3375 180.458 13.0535 180.236 12.7184C180.014 12.3844 179.904 12.0004 179.904 11.5687C179.904 10.8019 180.22 10.1702 180.854 9.67493C181.487 9.17848 182.316 8.92969 183.34 8.92969C184.442 8.92969 185.327 9.17962 185.996 9.67834C186.665 10.1771 187 10.8337 187 11.646H184.39C184.39 10.9768 184.038 10.6428 183.332 10.6428C183.059 10.6428 182.83 10.719 182.645 10.87C182.459 11.0223 182.367 11.2109 182.367 11.4369C182.367 11.663 182.481 11.8561 182.707 12.0004C182.933 12.1447 183.295 12.2628 183.791 12.3549C184.288 12.448 184.725 12.5582 185.1 12.6866C186.356 13.1183 186.983 13.8931 186.983 15.0086C186.983 15.7698 186.644 16.3901 185.968 16.8683C185.291 17.3466 184.415 17.5863 183.339 17.5863C182.624 17.5863 181.985 17.4579 181.425 17.2001C180.863 16.9433 180.426 16.5934 180.112 16.1504C179.798 15.7084 179.642 15.2427 179.642 14.753H182.073C182.083 15.1393 182.212 15.421 182.459 15.5982C182.707 15.7755 183.023 15.8641 183.409 15.8641C183.764 15.8641 184.031 15.7925 184.209 15.6482C184.386 15.504 184.474 15.3165 184.474 15.0848L184.476 15.0882Z" fill="black"></path><path d="M105.693 27.2866C105.389 26.8549 105.151 26.4425 104.979 26.0517C104.806 25.6609 104.721 25.2565 104.721 24.8407C104.721 23.9353 105.014 23.2037 105.601 22.6459C106.187 22.0881 106.955 21.8086 107.901 21.8086C108.75 21.8086 109.453 22.0676 110.009 22.5845C110.564 23.1014 110.843 23.7433 110.843 24.5101C110.843 25.4666 110.316 26.3153 109.26 27.056L108.673 27.4649L110.402 29.4485C110.685 28.8827 110.827 28.2624 110.827 27.5888H113.012C113.012 29.1065 112.661 30.3232 111.961 31.2389L113.675 33.2065H110.772L110.247 32.6123C109.815 32.8691 109.373 33.0599 108.923 33.1838C108.473 33.3076 107.965 33.3689 107.399 33.3689C106.287 33.3689 105.396 33.077 104.728 32.4931C104.058 31.9091 103.724 31.1412 103.724 30.1892C103.724 29.67 103.857 29.1985 104.122 28.7771C104.387 28.3556 104.903 27.8637 105.67 27.3036L105.693 27.2877V27.2866ZM107.569 31.3616C108.022 31.3616 108.455 31.2559 108.866 31.0457L106.843 28.7464L106.774 28.793C106.481 29.1531 106.334 29.5598 106.334 30.0119C106.334 30.388 106.452 30.7061 106.69 30.9685C106.926 31.2309 107.219 31.3616 107.569 31.3616ZM106.967 24.81C106.967 25.1701 107.163 25.6075 107.554 26.1221L108.071 25.7984C108.307 25.6439 108.48 25.4848 108.588 25.3201C108.696 25.1554 108.75 24.9475 108.75 24.6953C108.75 24.459 108.669 24.2534 108.504 24.0784C108.339 23.9035 108.135 23.816 107.893 23.816C107.605 23.816 107.379 23.9069 107.214 24.0898C107.049 24.2727 106.967 24.5135 106.967 24.8111V24.81Z" fill="black"></path><path d="M122.261 21.9699L124.77 29.787L127.271 21.9699H130.838V33.2053H128.12V30.5822L128.383 25.211L125.665 33.2053H123.874L121.149 25.2031L121.411 30.5811V33.2042H118.701V21.9688H122.26L122.261 21.9699Z" fill="black"></path><path d="M131.941 28.9514C131.941 28.1176 132.103 27.3757 132.427 26.7248C132.751 26.0738 133.217 25.574 133.825 25.2241C134.432 24.8742 135.146 24.6992 135.963 24.6992C137.213 24.6992 138.199 25.0866 138.919 25.8603C139.64 26.635 140 27.6881 140 29.0196V29.1127C140 30.4146 139.639 31.4473 138.916 32.2107C138.193 32.9753 137.213 33.357 135.979 33.357C134.745 33.357 133.835 33.0014 133.115 32.288C132.394 31.5757 132.005 30.61 131.949 29.3911L131.941 28.9514ZM134.542 29.1139C134.542 29.8852 134.663 30.451 134.905 30.8111C135.147 31.1712 135.505 31.3519 135.978 31.3519C136.904 31.3519 137.378 30.6396 137.399 29.215V28.9526C137.399 27.4553 136.92 26.7066 135.963 26.7066C135.094 26.7066 134.622 27.3519 134.55 28.6436L134.542 29.1139Z" fill="black"></path><path d="M145.966 27.2065L145.109 27.1451C144.291 27.1451 143.766 27.4019 143.534 27.9165V33.2025H140.932V24.8537H143.371L143.457 25.9261C143.894 25.1082 144.505 24.6992 145.287 24.6992C145.564 24.6992 145.806 24.7299 146.012 24.7924L145.965 27.2076L145.966 27.2065Z" fill="black"></path><path d="M150.675 33.357C149.393 33.357 148.357 32.9753 147.564 32.2107C146.772 31.4473 146.375 30.4533 146.375 29.2286V29.0128C146.375 28.1585 146.533 27.4053 146.851 26.752C147.167 26.0988 147.629 25.5933 148.236 25.2354C148.843 24.8776 149.564 24.6992 150.398 24.6992C151.571 24.6992 152.497 25.0628 153.177 25.791C153.857 26.5192 154.196 27.5336 154.196 28.8355V29.8466H149.024C149.117 30.3147 149.319 30.6827 149.634 30.9497C149.948 31.2178 150.355 31.3507 150.854 31.3507C151.678 31.3507 152.321 31.0622 152.784 30.4862L153.973 31.8904C153.649 32.338 153.189 32.6947 152.594 32.9594C151.999 33.2241 151.359 33.357 150.675 33.357ZM150.382 26.7055C149.62 26.7055 149.167 27.2099 149.023 28.2175H151.647V28.0176C151.657 27.6007 151.552 27.278 151.331 27.0486C151.109 26.8202 150.793 26.7055 150.381 26.7055H150.382Z" fill="black"></path></g><defs><clipPath id="clip0_31785_49957"><rect width="187" height="40" fill="white"></rect></clipPath></defs></svg> 