<svg xmlns="http://www.w3.org/2000/svg" width="195" height="40" viewBox="0 0 195 40">
    <g fill="none" fill-rule="evenodd">
        <g>
            <g>
                <path fill="#FFFFFE" d="M192.054 14.902h.485c.231 0 .39-.035.474-.104.084-.07.126-.16.126-.275 0-.073-.02-.139-.06-.196-.042-.058-.098-.101-.17-.13-.072-.029-.206-.043-.4-.043h-.455v.748zm-.399 1.394V13.82h.85c.29 0 .5.023.63.068.131.046.235.126.312.24.077.114.115.235.115.363 0 .18-.064.338-.193.473-.129.134-.3.21-.513.225.087.037.157.08.21.132.1.097.221.261.366.491l.301.485h-.487l-.22-.39c-.172-.308-.312-.5-.417-.577-.073-.057-.18-.086-.32-.086h-.235v1.053h-.399zm1.009-3.194c-.323 0-.638.082-.943.248-.306.166-.545.403-.718.711-.173.308-.259.63-.259.963 0 .331.085.65.255.953.17.304.406.541.711.711.305.17.623.255.954.255.33 0 .649-.085.953-.255.305-.17.542-.407.71-.71.169-.305.254-.623.254-.954 0-.334-.087-.655-.258-.963-.172-.308-.411-.545-.718-.71-.306-.167-.62-.25-.941-.25zm0-.382c.385 0 .763.1 1.13.298.368.198.654.482.86.85.205.37.307.755.307 1.156 0 .397-.1.778-.303 1.144-.202.366-.485.65-.85.853-.365.202-.746.303-1.144.303-.398 0-.78-.1-1.145-.303-.364-.203-.648-.487-.851-.853-.203-.366-.305-.747-.305-1.144 0-.4.103-.786.31-1.155.206-.37.492-.653.86-.851.368-.199.745-.298 1.13-.298zM179.1 32.822h-.265c-1.36 0-2.29-.864-2.854-2.193l-5.44-12.59c-.133-.332-.265-.764-.265-1.23 0-1.196 1.095-2.358 2.455-2.358s2.09.764 2.455 1.794L179 26.577l3.881-10.399c.332-.863 1.029-1.727 2.356-1.727s2.421 1.03 2.421 2.392c0 .432-.165.963-.264 1.196l-5.442 12.59c-.564 1.296-1.492 2.193-2.853 2.193zm-15.094-6.644v-.897c-.863-.399-1.99-.665-3.218-.665-2.157 0-3.484.864-3.484 2.459v.066c0 1.362 1.128 2.16 2.754 2.16 2.355 0 3.948-1.296 3.948-3.123zm-11.579 1.163v-.067c0-3.887 2.953-5.68 7.167-5.68 1.79 0 3.085.299 4.345.73v-.299c0-2.093-1.293-3.256-3.814-3.256-1.394 0-2.522.2-3.484.5-.299.099-.498.132-.73.132-1.161 0-2.09-.897-2.09-2.06 0-.897.564-1.661 1.36-1.96 1.593-.598 3.318-.93 5.673-.93 2.753 0 4.744.73 6.005 1.993 1.327 1.33 1.924 3.29 1.924 5.681v8.106c0 1.362-1.095 2.425-2.455 2.425-1.46 0-2.422-1.03-2.422-2.093v-.033c-1.227 1.362-2.92 2.259-5.374 2.259-3.35 0-6.105-1.927-6.105-5.448zM129.77 30.53l-4.346-12.557c-.1-.3-.233-.798-.233-1.23 0-1.163.93-2.292 2.422-2.292 1.26 0 2.09.797 2.455 1.96l2.721 9.036 2.786-9.003c.366-1.196 1.294-2.026 2.588-2.026h.299c1.294 0 2.223.83 2.588 2.026l2.82 9.036 2.787-9.102c.331-1.063 1.094-1.927 2.42-1.927 1.394 0 2.357 1.063 2.357 2.325 0 .333-.1.798-.167 1.03L146.79 30.53c-.53 1.561-1.56 2.259-2.786 2.259h-.167c-1.227 0-2.255-.698-2.72-2.16l-2.82-8.969-2.853 8.97c-.464 1.461-1.493 2.159-2.72 2.159h-.166c-1.228 0-2.256-.698-2.787-2.26zm-8.924-7.608c-.265-3.122-2.057-5.846-5.474-5.846-2.985 0-5.242 2.491-5.574 5.846h11.048zm-5.076 9.934c-4.71 0-8.559-3.622-8.559-8.937v-.067c0-4.95 3.484-8.936 8.227-8.936 5.077 0 7.963 4.152 7.963 8.704 0 .698-.564 1.196-1.194 1.196h-12.409c.366 3.72 2.987 5.813 6.039 5.813 2.123 0 3.683-.83 4.943-1.993.199-.166.431-.299.73-.299.63 0 1.128.499 1.128 1.096 0 .3-.133.599-.398.83-1.626 1.562-3.55 2.593-6.47 2.593zM78.383 16.41c0-.698.564-1.296 1.26-1.296.73 0 1.294.565 1.294 1.296v1.76c1.128-1.694 2.654-3.255 5.54-3.255 2.787 0 4.579 1.495 5.508 3.422 1.227-1.894 3.052-3.422 6.038-3.422 3.948 0 6.37 2.658 6.37 6.91v9.5c0 .732-.564 1.296-1.261 1.296-.73 0-1.294-.564-1.294-1.295v-8.903c0-3.322-1.659-5.183-4.445-5.183-2.588 0-4.712 1.927-4.712 5.316v8.77c0 .73-.564 1.295-1.294 1.295-.696 0-1.26-.564-1.26-1.295v-8.97c0-3.222-1.692-5.116-4.412-5.116-2.72 0-4.778 2.26-4.778 5.416v8.67c0 .73-.53 1.295-1.26 1.295s-1.294-.564-1.294-1.295V16.41zm-5.407 7.541v-.066c0-3.688-2.754-6.711-6.37-6.711-3.715 0-6.27 3.023-6.27 6.644v.067c0 3.687 2.72 6.677 6.336 6.677 3.716 0 6.304-2.99 6.304-6.61zm-15.261 0v-.066c0-4.85 3.782-8.97 8.957-8.97 5.143 0 8.925 4.053 8.925 8.903v.067c0 4.85-3.815 8.97-8.99 8.97-5.143 0-8.892-4.053-8.892-8.904zM40 9.335c0-.697.564-1.296 1.26-1.296.73 0 1.295.599 1.295 1.296v8.936c1.127-1.86 2.92-3.355 5.872-3.355 4.147 0 6.569 2.79 6.569 6.877v9.534c0 .73-.564 1.295-1.26 1.295-.73 0-1.295-.564-1.295-1.295v-8.903c0-3.189-1.725-5.183-4.744-5.183-2.953 0-5.142 2.16-5.142 5.382v8.704c0 .73-.53 1.295-1.261 1.295-.73 0-1.294-.564-1.294-1.295V9.335z" transform="translate(-200 -24) translate(200 24)"/>
                <path fill="#97D700" d="M2 38h28V2H2v36zm-2 2h32V0H0v40z" transform="translate(-200 -24) translate(200 24)"/>
                <path fill="#97D700" d="M10.284 21.5c-.165 0-.332-.05-.476-.153-2.071-1.49-3.308-3.89-3.308-6.42 0-4.37 3.589-7.927 8-7.927s8 3.556 8 7.927c0 1.387-.369 2.754-1.067 3.953-.224.385-.72.518-1.11.295-.388-.222-.522-.714-.297-1.1.555-.954.849-2.043.849-3.148 0-3.483-2.86-6.317-6.375-6.317s-6.375 2.834-6.375 6.317c0 2.016.986 3.929 2.637 5.116.364.261.444.765.18 1.124-.158.218-.406.333-.658.333" transform="translate(-200 -24) translate(200 24)"/>
                <path fill="#FFFFFE" d="M23.912 24.028c-.876 0-1.587.709-1.587 1.583v-1.847c0-.875-.711-1.583-1.588-1.583-.877 0-1.588.708-1.588 1.583v-1.847c0-.874-.71-1.583-1.587-1.583s-1.588.709-1.588 1.583v-6.334c0-.874-.71-1.583-1.587-1.583s-1.588.709-1.588 1.583v12.954l-2.089-2.084c-.62-.618-1.625-.618-2.245 0-.62.619-.62 1.621 0 2.24l3.855 3.843c.31.31.716.464 1.122.464h10.47c.877 0 1.588-.709 1.588-1.583v-5.805c0-.875-.711-1.584-1.588-1.584" transform="translate(-200 -24) translate(200 24)"/>
            </g>
        </g>
    </g>
</svg>
