<?xml version="1.0" encoding="UTF-8" standalone="no"?>
<svg
   xmlns:dc="http://purl.org/dc/elements/1.1/"
   xmlns:cc="http://creativecommons.org/ns#"
   xmlns:rdf="http://www.w3.org/1999/02/22-rdf-syntax-ns#"
   xmlns:svg="http://www.w3.org/2000/svg"
   xmlns="http://www.w3.org/2000/svg"
   xml:space="preserve"
   enable-background="new 0 0 432 288"
   viewBox="0 0 409.35001 252.492"
   height="252.492"
   width="409.35001"
   y="0px"
   x="0px"
   id="Layer_1"
   version="1.1"><metadata
     id="metadata3442"><rdf:RDF><cc:Work
         rdf:about=""><dc:format>image/svg+xml</dc:format><dc:type
           rdf:resource="http://purl.org/dc/dcmitype/StillImage" /><dc:title></dc:title></cc:Work></rdf:RDF></metadata><defs
     id="defs3440" /><g
     transform="translate(-10.789,-19.73)"
     id="g3418"><path
       style="clip-rule:evenodd;fill:#fbb040;fill-rule:evenodd"
       id="path3420"
       d="m 201.892,75.016 c 0,17.17 -13.917,31.095 -31.084,31.095 l -24.182,0 c -17.173,0 -31.104,-13.925 -31.104,-31.095 l 0,-24.193 c 0,-17.17 13.931,-31.092 31.104,-31.092 l 24.182,0 c 17.167,0 31.084,13.922 31.084,31.092 l 0,24.193 z" /><path
       style="clip-rule:evenodd;fill:#fbb040;fill-rule:evenodd"
       id="path3422"
       d="m 97.16,176.536 c 0,17.168 -13.925,31.091 -31.09,31.091 l -24.19,0 c -17.166,0 -31.091,-13.923 -31.091,-31.091 l 0,-24.188 c 0,-17.172 13.926,-31.093 31.091,-31.093 l 24.19,0 c 17.165,0 31.09,13.921 31.09,31.093 l 0,24.188 z" /><path
       style="clip-rule:evenodd;fill:#fbb040;fill-rule:evenodd"
       id="path3424"
       d="m 97.16,75.016 c 0,17.17 -13.925,31.095 -31.085,31.095 l -24.18,0 c -17.178,0 -31.106,-13.925 -31.106,-31.095 l 0,-24.189 c 0,-17.174 13.929,-31.097 31.106,-31.097 l 24.18,0 c 17.16,0 31.085,13.922 31.085,31.097 l 0,24.189 z" /><path
       style="fill:#949ca1"
       id="path3426"
       d="m 203.788,172.52 c 0,6.918 -0.676,13.055 -2.053,18.396 -1.363,5.349 -3.174,10.018 -5.424,13.998 -2.246,3.991 -4.877,7.328 -7.893,10.011 -3.019,2.692 -6.146,4.857 -9.371,6.504 -3.23,1.642 -6.511,2.826 -9.848,3.561 -3.334,0.736 -6.472,1.102 -9.424,1.102 -6.111,0 -11.406,-1 -15.896,-2.986 -4.497,-1.998 -8.53,-4.94 -12.112,-8.86 l -0.307,0 0,57.976 -15.942,0 0,-148.341 12.269,0 3.457,11.316 0.312,0 c 0.909,-1.392 2.085,-2.76 3.514,-4.086 1.434,-1.329 3.352,-2.741 5.768,-4.246 2.406,-1.505 5.31,-2.813 8.698,-3.934 3.392,-1.115 7.082,-1.676 11.057,-1.676 5.595,0 10.998,0.944 16.2,2.831 5.208,1.885 9.801,4.895 13.79,9.019 3.985,4.121 7.181,9.418 9.593,15.879 2.409,6.463 3.612,14.314 3.612,23.536 m -16.981,0.212 c 0,-5.803 -0.614,-11.012 -1.849,-15.619 -1.229,-4.614 -3.068,-8.547 -5.531,-11.8 -2.461,-3.244 -5.486,-5.742 -9.064,-7.492 -3.589,-1.746 -7.738,-2.624 -12.444,-2.624 -3.372,0 -6.449,0.457 -9.23,1.364 -2.778,0.909 -5.282,2.063 -7.537,3.459 -2.243,1.4 -4.177,2.901 -5.794,4.508 -1.623,1.609 -2.921,3.042 -3.9,4.304 l 0,52.102 c 3.444,3.492 7.36,6.252 11.753,8.28 4.395,2.025 9.12,3.042 14.182,3.042 3.089,0 6.356,-0.577 9.803,-1.729 3.443,-1.16 6.629,-3.219 9.542,-6.183 2.917,-2.975 5.326,-7.012 7.22,-12.115 1.899,-5.1 2.849,-11.6 2.849,-19.497" /><path
       style="fill:#949ca1"
       id="path3428"
       d="m 211.165,173.128 c 0,-6.923 0.678,-13.058 2.043,-18.399 1.36,-5.348 3.16,-10.011 5.398,-13.999 2.232,-3.982 4.848,-7.321 7.865,-10.009 3.004,-2.691 6.111,-4.874 9.328,-6.557 3.214,-1.675 6.479,-2.885 9.799,-3.614 3.32,-0.732 6.451,-1.101 9.387,-1.101 6.083,0 11.351,1.015 15.823,3.04 4.481,2.03 8.495,4.996 12.058,8.912 l 0.318,0 0,-61.539 16.253,0 0,151.805 -12.271,0 -3.354,-11.11 -0.421,0 c -1.253,1.604 -2.727,3.225 -4.399,4.868 -1.677,1.642 -3.655,3.124 -5.923,4.454 -2.279,1.33 -4.896,2.393 -7.861,3.2 -2.973,0.809 -6.418,1.204 -10.334,1.204 -5.449,0 -10.799,-0.924 -16.031,-2.773 -5.246,-1.853 -9.914,-4.818 -14,-8.912 -4.086,-4.086 -7.392,-9.362 -9.908,-15.831 -2.52,-6.467 -3.77,-14.348 -3.77,-23.639 m 16.979,-0.215 c 0,5.73 0.652,10.923 1.94,15.571 1.294,4.652 3.165,8.595 5.608,11.848 2.451,3.251 5.451,5.748 9.017,7.494 3.564,1.75 7.651,2.623 12.267,2.623 3.416,0 6.535,-0.458 9.326,-1.368 2.803,-0.905 5.295,-2.058 7.5,-3.454 2.2,-1.396 4.09,-2.885 5.659,-4.455 1.571,-1.578 2.812,-3.025 3.724,-4.354 l 0,-52.1 c -3.359,-3.431 -7.23,-6.172 -11.639,-8.233 -4.406,-2.06 -9.158,-3.095 -14.256,-3.095 -3.074,0 -6.307,0.581 -9.695,1.733 -3.393,1.151 -6.539,3.232 -9.436,6.235 -2.9,3.01 -5.296,7.046 -7.181,12.108 -1.894,5.069 -2.834,11.555 -2.834,19.447" /><polygon
       style="fill:#fbb040"
       id="polygon3430"
       points="394.134,221.669 373.895,221.669 326.089,168.62 325.881,168.62 325.881,221.669 309.634,221.669 309.634,69.862 325.881,69.862 325.881,166.521 326.089,166.521 373.05,122.074 394.233,122.074 345.593,167.882 " /></g><g
     transform="translate(-10.789,-19.73)"
     id="g3432"><path
       style="fill:#949ca1"
       id="path3434"
       d="m 405.794,212.198 -2.831,0 0,-1.022 6.891,0 0,1.022 -2.845,0 0,8.285 -1.215,0 0,-8.285 z" /><path
       style="fill:#949ca1"
       id="path3436"
       d="m 418.732,216.396 c -0.069,-1.298 -0.152,-2.872 -0.152,-4.019 l -0.027,0 c -0.332,1.077 -0.704,2.251 -1.174,3.535 l -1.644,4.516 -0.911,0 -1.52,-4.433 c -0.441,-1.325 -0.801,-2.513 -1.063,-3.618 l -0.027,0 c -0.027,1.16 -0.097,2.707 -0.18,4.115 l -0.248,3.991 -1.146,0 0.649,-9.308 1.532,0 1.589,4.502 c 0.386,1.146 0.69,2.168 0.938,3.135 l 0.027,0 c 0.249,-0.939 0.58,-1.961 0.995,-3.135 l 1.656,-4.502 1.533,0 0.58,9.308 -1.188,0 -0.219,-4.087 z" /></g></svg>