<svg width="119" height="52" viewBox="0 0 119 52" fill="none" xmlns="http://www.w3.org/2000/svg">
<path d="M78.5623 15.6913H81.1544V30.191H78.5623V15.6913Z" fill="#333334"/>
<path d="M83.7068 15.6913H86.8174L98.8211 27.2116V15.6913H101.453V30.191H98.3026L86.2989 18.6707V30.191H83.7068V15.6913Z" fill="#333334"/>
<path d="M104.045 30.191V15.6913H119V17.9954H106.637V21.6501H117.684V23.9939H106.637V27.8472H119V30.191H104.045Z" fill="#333334"/>
<path d="M65.6813 33.8456H69.1508L71.5037 40.9564L73.9363 33.8456H77.2064V48.3453H74.6541V38.2154L72.5804 44.6111H70.3472L68.2734 38.2154V48.3453H65.6813V33.8456Z" fill="#333334"/>
<path d="M79.0807 48.3453V33.8456H87.8143V36.1497H81.6728V39.8044H87.0167V42.1482H81.6728V46.0015H87.8143V48.3453H79.0807Z" fill="#333334"/>
<path d="M89.4893 33.8456H92.0814V46.0015H96.7473V48.3453H89.4893V33.8456Z" fill="#333334"/>
<path d="M108.95 33.8456H112.061L116.408 43.7769V33.8456H119.04V48.3453H115.889L111.582 38.3743V48.3453H108.99L108.95 33.8456Z" fill="#333334"/>
<path d="M65.6414 15.6913H70.387C74.3749 15.6913 76.3689 17.1214 76.3689 19.9816C76.3689 21.809 75.7308 23.0405 74.4148 23.6761C73.0988 24.3117 71.4239 24.6295 69.39 24.6295C69.1906 24.6295 68.9912 24.6295 68.7519 24.5897C68.5127 24.5897 68.3532 24.55 68.2335 24.55V30.2307H65.6414V15.6913ZM68.2335 17.9954V22.1665C68.393 22.1665 68.6323 22.2062 68.9115 22.246H69.5097C70.8656 22.246 71.9024 22.0871 72.6601 21.809C73.4178 21.5309 73.7767 20.935 73.7767 20.0214C73.7767 19.2269 73.4577 18.7104 72.8196 18.4324C72.1816 18.1543 71.3042 18.0351 70.1477 18.0351L68.2335 17.9954Z" fill="#333334"/>
<path d="M105.92 35.3552C105.042 34.2827 103.846 33.7662 102.291 33.7662C100.735 33.7662 99.5389 34.3224 98.6615 35.4347C97.824 36.5073 97.3854 38.0168 97.3854 39.8839V42.4263C97.4253 44.2536 97.8639 45.7234 98.7413 46.7563C99.6186 47.7891 100.815 48.3453 102.33 48.3453C103.886 48.3453 105.122 47.7891 105.959 46.7166C106.797 45.644 107.236 44.1345 107.236 42.2277V39.7647C107.196 37.8976 106.757 36.4278 105.92 35.3552ZM104.803 39.8839V42.4263C104.803 43.7372 104.564 44.6906 104.165 45.3262C103.766 45.8823 103.168 46.1604 102.33 46.1604C101.493 46.1604 100.895 45.8426 100.456 45.2467C100.017 44.5714 99.7781 43.5783 99.7781 42.2674V39.8442C99.7781 38.5332 100.017 37.5401 100.456 36.9045C100.855 36.3086 101.493 35.9908 102.291 35.9908C103.128 35.9908 103.766 36.2689 104.165 36.8648C104.604 37.5401 104.803 38.5332 104.803 39.8839Z" fill="#333334"/>
<path d="M37.0081 52C48.3728 52 57.5858 42.8227 57.5858 31.5019C57.5858 20.1811 48.3728 11.0038 37.0081 11.0038C25.6433 11.0038 16.4303 20.1811 16.4303 31.5019C16.4303 42.8227 25.6433 52 37.0081 52Z" fill="#53C95A"/>
<path d="M29.4309 35.3155C31.0827 35.3155 32.4218 33.9816 32.4218 32.3361C32.4218 30.6907 31.0827 29.3568 29.4309 29.3568C27.779 29.3568 26.4399 30.6907 26.4399 32.3361C26.4399 33.9816 27.779 35.3155 29.4309 35.3155Z" fill="#EF8653"/>
<path d="M26.759 34.2827C24.3264 45.6837 17.188 50.5302 9.96983 48.9809C2.71179 47.4316 -1.7547 40.1222 0.677939 28.7212C3.11058 17.3201 10.2889 12.5134 17.507 14.0229C24.7252 15.5325 29.2316 22.9213 26.759 34.2827Z" fill="#FFD459"/>
<path d="M46.9379 21.4515C46.8183 22.961 45.7814 23.5172 44.5053 23.6363C43.2292 23.7555 42.4316 23.398 41.634 22.4843C40.956 21.6898 39.7995 22.8418 40.4775 23.6363C42.9101 26.6157 48.4135 25.5829 48.6528 21.4515C48.6528 20.4186 46.9379 20.4186 46.9379 21.4515Z" fill="#343435"/>
<path d="M35.1735 24.0733C34.8146 26.4966 31.385 27.728 29.8696 25.5432C29.3113 24.6295 27.7959 25.5432 28.3542 26.3377C29.5107 27.9267 31.1058 28.5225 32.9403 28.165C34.7747 27.8075 36.4098 26.3377 36.7288 24.3911C37.008 23.5172 35.2932 23.0405 35.1735 24.0733Z" fill="#343435"/>
<path d="M34.1367 31.6608C38.0448 35.3155 44.266 34.2032 46.4594 29.2376C46.9379 28.2047 45.4225 27.4102 44.944 28.4431C43.2292 32.4553 38.4835 33.6073 35.2932 30.5088C34.6152 29.7937 33.3391 30.9458 34.1367 31.6608Z" fill="#343435"/>
<path d="M13.6387 36.7853C15.0345 39.6455 19.182 40.44 21.2158 37.8182C21.8938 37.0237 20.6575 35.7525 20.0593 36.6662C18.6635 38.3743 16.0315 37.9374 15.1143 35.9908C14.5959 34.958 13.2001 35.7525 13.6387 36.7853Z" fill="#343435"/>
<path d="M12.1632 29.3568C12.0436 30.9458 12.9608 32.8128 14.5959 33.0115C16.4303 33.2498 18.1452 31.5019 17.9458 29.6746C17.8261 28.6417 16.1113 28.6417 16.2309 29.6746C16.3506 30.4691 15.6726 31.6211 14.6358 31.2636C13.9578 31.0252 13.7185 29.9924 13.8382 29.317C13.8781 28.3239 12.2829 28.3239 12.1632 29.3568Z" fill="#343435"/>
<path d="M19.6605 30.2704C19.5409 31.8594 20.4581 33.7265 22.1729 33.9251C24.127 34.1635 25.4032 32.4156 25.4032 30.5882C25.4032 29.5554 23.6884 29.5554 23.6884 30.5882C23.6884 31.3827 23.2098 32.5347 22.1729 32.1772C21.3754 31.9389 21.2557 30.906 21.2557 30.2307C21.3754 29.1184 19.6605 29.1184 19.6605 30.2704Z" fill="#343435"/>
<path d="M50.4873 30.1512C52.1391 30.1512 53.4782 28.8173 53.4782 27.1719C53.4782 25.5264 52.1391 24.1925 50.4873 24.1925C48.8354 24.1925 47.4963 25.5264 47.4963 27.1719C47.4963 28.8173 48.8354 30.1512 50.4873 30.1512Z" fill="#EF8653"/>
<path d="M8.49425 36.7853C10.1461 36.7853 11.4852 35.4514 11.4852 33.8059C11.4852 32.1605 10.1461 30.8266 8.49425 30.8266C6.84239 30.8266 5.5033 32.1605 5.5033 33.8059C5.5033 35.4514 6.84239 36.7853 8.49425 36.7853Z" fill="#EF8653"/>
<path d="M34.8146 14.3407C34.7748 14.3407 34.7349 14.3407 34.695 14.3407C32.1028 14.0229 31.1457 12.275 30.8666 11.56C30.1886 9.8518 30.4279 7.86555 31.4648 6.47517C31.5047 6.39572 31.5445 6.356 31.6243 6.27655C30.9463 4.68755 31.1856 2.74103 32.2624 1.35065C32.5415 0.993126 33.0998 0.913676 33.4587 1.19175C33.8177 1.46983 33.8974 2.02598 33.6183 2.3835C33.0201 3.13828 32.8207 4.21085 33.06 5.16425C34.0968 4.64782 35.3331 4.52865 36.4497 4.88617C37.327 5.20397 38.005 5.79985 38.2841 6.5149C38.6829 7.54775 38.2443 8.69977 37.327 9.13675C36.9681 9.29565 36.6092 9.33537 36.3301 9.33537C34.9742 9.33537 33.6183 8.77922 32.6612 7.7861C32.1427 8.66005 32.063 9.8518 32.4618 10.8846C32.701 11.4408 33.2992 12.4339 34.9343 12.6325C35.4128 12.712 35.7319 13.1092 35.692 13.5859C35.6122 14.0626 35.2533 14.3407 34.8146 14.3407ZM33.9373 6.6738C34.5355 7.26967 35.4128 7.6272 36.2503 7.6272H36.2902C36.4896 7.6272 36.5693 7.58747 36.5693 7.58747C36.6491 7.54775 36.7289 7.34912 36.6491 7.1505C36.5693 6.91215 36.2503 6.6738 35.8515 6.5149C35.2533 6.31627 34.5355 6.39572 33.9373 6.6738Z" fill="#333334"/>
<path d="M22.6116 16.8037C22.4521 16.8037 22.2527 16.7639 22.0932 16.6448C21.6944 16.3667 21.6146 15.8105 21.9336 15.453C24.0871 12.5928 24.0472 9.97096 23.6883 8.26278C23.13 9.25591 22.1729 10.3682 20.6575 11.2422C20.3783 11.4011 20.0593 11.4011 19.82 11.2422C19.5409 11.0833 19.3814 10.8052 19.3814 10.5271C19.3415 7.54773 17.9856 4.60808 15.7523 2.62183C15.5928 2.46293 15.4333 2.34376 15.2738 2.22458C16.1511 4.68753 16.4303 7.74636 15.9916 10.3285C15.9517 10.6463 15.6726 10.9244 15.3536 11.0038C15.0345 11.0833 14.6756 10.9641 14.4762 10.686C13.4792 9.41481 11.6049 8.06416 9.8502 7.26966C11.4454 10.0901 12.3626 13.5065 11.8043 15.2544C11.6448 15.6914 11.1662 15.9694 10.7275 15.8105C10.2889 15.6516 10.0097 15.1749 10.1692 14.738C10.6478 13.2284 9.29189 8.93811 7.09853 6.23681C6.85925 5.95873 6.85925 5.60121 7.01877 5.28341C7.17828 4.96561 7.5372 4.80671 7.89611 4.84643C10.0496 5.16423 12.6816 6.67378 14.5161 8.26278C14.5958 5.79983 14.0375 3.09853 13.0007 1.23146C12.8412 0.99311 12.881 0.67531 13.0007 0.397235C13.1203 0.11916 13.3995 -0.0397399 13.6786 -0.0397399C14.7155 -0.11919 15.7922 0.317785 16.9088 1.31091C19.1022 3.25743 20.5777 5.99846 21.0164 8.89838C22.5717 7.46828 22.8907 5.79983 22.8907 5.72038C22.9705 5.36286 23.2098 5.08478 23.5687 5.00533C23.9276 4.92588 24.2865 5.08478 24.446 5.40258C24.5657 5.60121 27.6364 10.6066 23.3294 16.4064C23.13 16.6845 22.8907 16.8037 22.6116 16.8037Z" fill="#333334"/>
</svg>
