<svg xmlns="http://www.w3.org/2000/svg" viewBox="0 0 256.82 141.42"><defs><style>.cls-1{fill:#fc0;stroke:#000;stroke-width:0.62px;}.cls-2{fill:#fff;}</style></defs><g id="Layer_2" data-name="Layer 2"><g id="Layer_2-2" data-name="Layer 2"><path class="cls-1" d="M252.51,39.61a3.53,3.53,0,0,0-1.7.4A24.2,24.2,0,0,0,232.21.31H25.81A25.48,25.48,0,0,0,.31,25.81v89.8a25.48,25.48,0,0,0,25.5,25.5H231a25.48,25.48,0,0,0,25.5-25.5v-72a4,4,0,0,0-4-4Z"></path><path d="M252.51,42.31a1.37,1.37,0,0,0-1.4,1.4v72a20.1,20.1,0,0,1-20.1,20.1H25.81a20.1,20.1,0,0,1-20.1-20.1V25.91a20.1,20.1,0,0,1,20.1-20.1h206.4a18.84,18.84,0,0,1,6.5,36.5l-.3-.8a1.6,1.6,0,0,0-.7-.9,1.84,1.84,0,0,0-1.6.5c-.5.6-2.3.7-2.3.7-15.5,1.7-26.3,6.5-28.8,7.8a41.92,41.92,0,0,1-4.9,2,2.31,2.31,0,0,0-1.3,1.7v3.2l.1.2v6.4l.5,1v.5l-4-1.8h2.5v-6.1h-5.2l-1.1-.1-.1-.1-.1-.1v-.2l.1-4.7.2-4.7.2-4.7.2-4.7-.1-.1-.1-.1h-.3l-5,.3-2.5.4-.1.2-.1,1.2-.2.1h0l-.5-.3-.6-.2-.6-.2-.6-.2-.6-.1-.6-.1h-1.7l-.6.1-.6.1-.6.1-.6.2-.6-.1-.5.2-.5.3-.5.3-.5.3-.6.6-.6.6-.5.6-.5.6-.5.7-.5.7-.4.7-.4.7-.4.8-.3.8-.3.8-.2.8-.2.8-.2.8-.1.7-.2.7-.2.7-.2.6-.5.3-.5.3-.5.2-.5.2-.6.2-.6.1-.6.1h-.6l-.1-.1-.1-.1-.1-.1v-.1l.2-9.2v-2.9l-.1-.7-.1-.7-.3-.3-.3-.3-.3-.3-.4-.2-.4-.2-.4-.2-.4-.1-.4-.1-.4-.1h-.8l-2.6.2-.9.3-.9.4-.9.4-.9.4-.9.5-.9.5-.8.5-.8.6v-.9l-.1-.5-.1-.4-.1-.4-.2-.3-.2-.2-.6-.6-.3-.2-.3-.2-.3-.1L146,38l-.6-.1-.6-.1-.6-.1h-1.7l-.6.1-.6.1-.6.1-.6.2-.5.2-.5.2-.5.3-.5.3-.5.3-.5.4-.5.4-.5.2v-1.7l.1-.9.1-.9-.1-.1-5.4.2-2.8.3-.3.2-.3,10.9-.2,4.6-.1.4-.2.3-.2.3-.2.3-.2.3-.3.3-.3.2-.3.2-.4.3-.4.3-.4.3-.5.2-.5.2-.5.2-.5.1-1.7.7h0l1.8-2.1.3-.5.3-.5.2-.5.2-.6.2-.6.1-.6.1-.6v-1.8l-.1-.6-.1-.6-.1-.6-.9-2.2-.5-1.1-.5-1.1-.5-1.1-.5-1.1-.4-1.1-.4-1.2-.3-1.2-.3-1.2-.3-1.2-.1-.1-1.4.2-1.4.2-1.4.2-1.4.1-1.4.1-1.4.1-.1.1-.4,1.4-.4,1.3-.4,1.3-.5,1.3-.5,1.3-.5,1.3-.6,1.3-.7,1.3-.6,1.2-.7,1.2-.7,1.2-.8,1.2-.4.5-.4.5-.5.5-.5.5-.5.4-.5.4-.6.4-.6.4-.6.3-.1.1h-.2l-.2-.1-.1-.1-.1-.1-.1-.1-.1-.2v-.6l.3-5.1.6-13.2-.2-.2-5.9.3-2.7.4-.1.2v1.1l-.2.1-1.6-.9-.6-.2-.6-.1-.6-.1h-1.8l-.6.1-.6.1-.6.1-.6.2-.6.2-.6.2-.6.3-.5.3-.5.3-.5.4-.5.4-.4.4-.4.5-.4.5-.4.5-.3.5-.3.5-.3.6-.2.6-.4.8-.3.8-.3.8-.3.8-.2.8-.2.9-.2.9-.1.9-.4.4-.5.3-.5.3-.7,1.4-.5.2-.5.2-.5.2-.6.1h-.1l-.1-.1-.1-.1-.1-.1.1-3.7.2-7.3.1-3.7v-.2l.1-4.1.1-4.1.1-4.1.1-4.1-.1-.2-5,.8-3.5.8-.1.2v2.1l-.1,2-.1,2.1-.1,2L60.31,50l-.2,8,.3,1.4.3.4.3.4.3.3.3.3.4.3.4.3.4.2.4.2.4.2.4.1.5.1,2.4.2.7-.1.7-.1L69,62l.7-.2.6-.2.6-.3.6-.3.6-.4.7-.5.7-.4.7-.4.7-.4.4.4.4.4.4.4.5.4.5.3.5.3.5.3.5.2.5.2.6.2.6.1.6.1h1.8l.6-.1.6-.1.7-.1.7-.2.7-.2.7-.2.7-.3.7-.3.6-.3.6-.4,1.6,1.5.5.3.5.2.5.2.5.2.5.1.5.1.5.1h1l.5-.1.5-.1.5-.1.5-.2,4.9-2.2,1-.5,1-.6.9-.6.9-.6.9-.7.9-.7.9-.7.8-.7.5-.5.5-.6.4-.6.4-.6.4-.6.3-.6.3-.7L115,46l.3.4.2.4.2.5.2.5.1.5.1.5v1.5l-.1.5-.1.5-.1.5-.2.5-.2.5-.2.5-.3.5-.3.5-.3.4-.4.4-.4.4-.4.4-.4.3-.5.3-.5.3-.5.2-.5.2-.5.2-.5.1-.5.1-.5.1h-.6l-.1,3.9.7.3.8.3.8.2.8.2.8.2.8.1.8.1h15.6l.6-.1.6-.1.6-.2.6-.2.6-.3.6-.3.5-.3.5-.4.5-.4.5-.4.2-.3.2-.3.2-.3.1-.4.1-.4.1-.4V57l.4-6.5.1-.5.1-.5.2-.5.2-.5.2-.5.3-.4.3-.4.3-.4.3-.2.3-.2.3-.1.4-.1.4-.1h.8l.2.1.2.1.2.2.2.2.2.2.1.2.1.3-.2,5.6-.2,9.4-.1.6,6.9.1.2-.2v-3.2l.1-3.2.1-3.2.2-3.2.8-1.9,1-1.4.2-.2.2-.2.2-.2.3-.1.3-.1h.9l.3.1.3.1.2.2.2.2.2.2.2.2.1.2.1.3.1.3v.3l-.1,2.3-.1,2.3v6.9l.1.4.2.4.2.3.2.3.3.3.3.3.3.2.4.2.4.2.4.2.4.1.4.1,2.7.3h1l.5-.1.5-.1.5-.2.5-.2.5-.2.5-.2.6-.3.6-.4.6-.4.6-.4.5-.4.5-.5.5-.5h.2l.3.4.3.4.4.4.4.4.4.3.4.3.4.3.5.3.5.2.5.2.5.2.5.1.5.1,2.2.2.7-.1.7-.1.7-.2.7-.2.7-.2.6-.3.6-.3.6-.3.6-.4.6-.4.3.1.2.3.2.3.3.3.3.3.3.3.3.2.4.2.4.2.4.2.4.1.4.1h3a2.35,2.35,0,0,0,.8,2.1l3.8,2.7h-2.4l-.6,1.2L178.91,92l-3.4-6.5-2-3.9-1.8-3.9-1.9-3.9-1.7-3.1-1.5-3-25.2-.1.1,15.7h5.2l.2,10.6.1,10.8h-6.5l-2.8-5.3-2.9-5.7-2.9-5.6-2.4-4.7h4.9V67.71l-23.6-.1-18.4-.2-.1,15.9h4.1L93.51,89l-1.7,3.3-1.7,3.2-1.8,3.2-1.8,3.2-1.6,2.8-6.6.1-.1.3-1.7-.9-2.6-1.4-2.6-1.4-3.4-1.8-1.2,3.5-1.1,1.6-2,1.6-3.1,1.1-.6.1-.7.1-.7.1h-1.4l-.7-.1-.7-.1-.7-.1-.6-.2-.7-.2-.6-.2-.6-.3-.5-.3-.5-.4-.5-.4-.5-.4-.4-.4-.4-.4-.4-.5-.4-.5-.3-.5-.3-.5-1-2.3-.2-.8-.2-.9-.1-.9-.1-.9v-2.7l.1-.9.1-.9L47,91l.2-.9.2-.8.2-.6.3-.6.3-.6.3-.6.4-.6.4-.6.4-.5.5-.5.5-.5.5-.4.5-.4,2.2-1.1,3.4-.8.6-.1.6-.1h1.8l.6.1.6.1.6.2.5.2.5.2.5.3.5.3.5.3.4.3.3.3.3.3.2.4.2.4.2.4.2.4.1.4.1.4v.1l.2,1.9h16.6l.1-5.7V67l-16.8-.2v3.1l-.6-.4-.9-.5-1-.4-1-.4-1-.3-1-.3-1-.2-1-.2-1-.1-1-.1-1-.1h-2l-1,.1-1,.1-.9.1-1.1.1-1.1.1-1.1.2-1.1.2-1.1.2-1.1.3-1.1.3-1,.4-1,.4-1,.4-1,.5-1,.5-1,.6-1,.6-.9.6-.9.6-.9.7-.9.7-.8.7-.8.8-.7.8-.6.8-.6.8-.5.8-.5.9-.5.9-.4.9-.4.9-.4.9-.3,1-.3.9-.2.9-.3,1.1-.2,1.1-.2,1.1-.1,1.1-.1,1.1-.1,1.1v2.2l.1,1.1.1,1.1.1,1.1.2,1.1.2,1.1L26,102l.3,1.1.3,1.1.4,1,.4,1.1.5,1,.6,1,.6.9.6.9.7.9.7.8.7.8.8.8.8.8.8.7.8.7.9.6.9.6.9.6,1,.6.9.5,1,.5,1,.4,1,.4,1,.4,1,.3,1,.3,1.1.2,1,.2,1.3.2,1.3.2,1.3.2,1.3.1,1.4.1h3.9l1.3-.1,1.3-.1,1.3-.2,1.3-.2,1.3-.3,1.3-.3,1.3-.4,1.3-.4,1.2-.4,1.2-.5,1.3-.5.9-.5.9-.5.9-.6.9-.6.8-.6.4-.3v6.3l17.4-.1h13.3l.1-17.3h-6.1l1.1-2.1h16l1.1,2.2h-5.3l-.2,17,45.7-.1,5.7-.1-.1-16.7,2,4.1,2,4.1,4.5,8.6,3.9-.1,10.5-20.4,3.2-6.1v9.3l-4.9.1v17.1l25.9-.1V104h-4.7V82.31l4.5-.1v-6.9l.1-8.1h-3.5l4-2.9a2.07,2.07,0,0,0,.4-2.9,2.19,2.19,0,0,0-2.4-.7l-7.5,3.3v-.3l.5-1v-4.5l.8-.1a1.78,1.78,0,0,0,1-.4c3.5-3.1,5.4-3.5,5.4-3.5l.4.1c5.2-2.3,12.9-2.3,12.9-2.3l-.3-1.6a3.79,3.79,0,0,1,1.5,0c4.7-4.3,9.7-3.9,11.2-3.4a3.61,3.61,0,0,0,2.7-.1c.8-.3.1-1.4.1-1.4l-.3-.8A21.54,21.54,0,0,0,232.11,3H25.81a23,23,0,0,0-22.9,22.9v89.8a23,23,0,0,0,22.9,22.9H231a23,23,0,0,0,22.9-22.9v-72A1.5,1.5,0,0,0,252.51,42.31Zm-163,9.8v.6l-.3.3-.3.3-.3.3-.4.2-.4.2-.4.2-.4.2-.4.1-.4.1-.3.1-.3.1h-1.1l-.3-.1-.3-.1-.4-.2-.3-.2L83,54l-.2-.2-.2-.3-.2-.3-.1-.3-.1-.3v-1.2l.1-.6.1-.6.2-.6.2-.6.2-.6.3-.6.3-.6.3-.5.4-.5.2-.3.2-.3.2-.3.3-.2.3-.2.3-.2.3-.2.3-.1.4-.1h.8l1.1.4.2.1.2.2.2.2.2.2.1.2-.2,6.3Zm93.7.6-.3.4-.3.3-.3.3-.3.3-.5.3-.4.2-.4.2-.4.2-.4.2-.4.1-.5.1h-.6l-.3-.1-.3-.1-.3-.1-.3-.2-.3-.2-.2-.2-.2-.2-.2-.3-.2-.3-.1-.3-.1-.3-.1-.3v-1.2l.1-.6.1-.6.1-.5.2-.5.2-.5.2-.5.3-.5.3-.5.3-.4.4-.4.4-.4.4-.4.4-.4.5-.3.3-.2.3-.1.3-.1h.9l.3.1.3.1.3.1,1,.9Zm-76.8,41.2,4.4-8.6.3.6,1.7,3.4,1.7,3.4.6,1.2Zm54.5,10.4-.1-9.4.7,1.4,2.2,4.1,2,3.8ZM40,32.21l-.2-.3-1.2.1-1.2.1-1.2.1-1.2.2-1.2.2-1.2.2-1.2.3-1.2.3-.1.2-.3,7.2-.2,7.1-.2,7.2-.2,7.2.1.1,9.8.1.1-.1.3-12,.1-.8h1l1-.1,1-.1,1-.1,1-.2,1-.2,1-.2,1-.3,1-.3,1-.3,1-.4.6-.3.6-.3.6-.4L53,46l.6-.4.6-.4.5-.5.5-.5.5-.5.5-.6.4-.6.4-.6.4-.6.3-.7.3-.7.2-.7.2-.7.2-.7.1-.7.1-.7.1-.7v-2.4l-.1-.7-.1-.7-.1-.7-.1-.7-.2-.7-.2-.7-.3-.7-.3-.7-.4-.7-.4-.6-.4-.6-.5-.6-.4-.5-.6-.5-.6-.5-.6-.4-.6-.4-.7-.4-.7-.3-.7-.3-.7-.3-.7-.2-.7-.2-.7-.2-.8-.1-3.1-.5-1.3-.1h-2.6l-1.3.1-1.3.1-1.3.1-1.2.2L34,21l-1.2.2-1.2.3-1.2.3-1.2.4-1.2.4-1.2.4-1.2.4-.1.3-.6,8.1v.3l.1.1,1.1-.4,1.1-.4,1.1-.4,1.1-.3,1.1-.3,1.1-.3,1.1-.2,1.2-.2,1.1-.2,1.2-.1,1.2-.1,1.2-.1h3.6l2.3.5,2.3.9.4.2.4.2.4.2.4.2.3.3.3.3.3.3.3.3.2.4.2.4.2.4.1.4.1.4.1.4v1.2l-.1.4-.1.4-.1.4-.2.4-.2.4-.2.3-.3.3-.3.3-.3.3-.4.2-.4.2-.4.2-.8.3-.8.3-.8.2-.8.2-.8.2-.8.1-.8.1h-1.6v-3.7Z"></path><path class="cls-2" d="M192.71,69.51l-14,26.8-5.4-10.2-2-3.9-2-3.9-1.9-3.9-1.6-3.1-.9-1.8-21.6-.1.1,11.3h5.2l.2,12.8.1,13h-10l-3.5-6.5-3-5.7-2.9-5.6-4-7.9,6.3-.1V69.41l-21.4-.1-16.2-.2-.1,11.5h5.5l-4.5,8.9-1.7,3.3-1.7,3.3-1.8,3.2-1.8,3.2-2.2,3.9-6.2.1-.4,1.3-4.1-2.2-2.6-1.4-2.6-1.4-1.1-.6-.5,1.4-1.4,2.1-2.5,2.1L61,109l-.9.2-.8.1-.8.4h-1.6l-.8-.1-.8-.1-.8-.2-.8-.2-.8-.2-.8-.3-.8-.4-.7-.4-.6-.4-.6-.4-.5-.5-.5-.5-.5-.6-.5-.6-.4-.6-.4-.6-.4-.7-1.1-2.6-.2-1.1-.2-1-.1-1-.1-1-.1-1v-2l.1-1,.1-1,.1-1,.2-1,.2-1,.3-.8.3-.7.4-.7.4-.7.4-.7.5-.6.5-.6.5-.6.6-.6.6-.5.7-.6,2.7-1.3,3.7-.9.7-.1.7-.1h1.4l.7.1.7.1.7.2.7.2.7.2.7.3.7.3.6.4.6.4.6.5.5.5.4.5.4.5.3.5.3.5.2.6.2.6.1.6v.2h12.5V69.21l-12.4-.1v5l-.3-.3-.9-.6-.9-.6-.9-.6-.1-.1-.8-.4-.8-.4-.9-.4-.9-.3-.9-.3-.9-.3-.9-.2-.9-.2-.9-.2-.9-.1-.9-.1h-2.7l-.9.1-1,.2-1.1.1-1,.1-1,.1-1,.2-1,.2-1,.3-1,.3-1,.3-1,.4-1,.4-.9.4-.9.5-.9.5-.9.5-.9.6-.8.6-.8.6-.8.7-.8.7-.7.7-.6.7-.6.7-.5.7-.5.8-.5.8-.4.8-.4.8-.4.8-.3.8-.3.9-.3.9-.2.9-.3,1-.2,1-.2,1-.1,1-.1,1-.1,1v2l.1,1,.1,1,.1,1,.2,1,.2,1,.2,1,.3,1,.3,1,.4,1,.4,1,.4.9.5.8.6.8.6.8.6.8.7.8.7.8.7.7.7.7.8.6.8.6.8.6.8.6.9.5.9.5.9.5.9.4.9.4.9.4,1,.3,1,.3,1,.3,1,.2,1,.2,1.3.2,1.2.2,1.3.2,1.3.1,1.3.1h3.9l1.3-.1,1.3-.1,1.3-.2,1.2-.2,1.2-.2,1.2-.3,1.2-.3,1.2-.4,1.2-.4,1.2-.4,1.1-.5.8-.4.8-.5.8-.5.8-.5.7-.6.7-.6.6-.5.8-.8.8-.8.2-.3.8.4-.1,8.1,14.7-.1h11.2l.1-12.9H98l3.6-6.4h18.7l3.4,6.6h-6.8l-.1,12.8,43.5-.1,3.5-.1-.1-12.8h-5l-.2-19.4.5-.1,4.5,8.4,2.2,4.1,2.1,4.1,2.1,4.2,2,4.2,3.8,7.4h1.2l9.9-19.2,7-13.1.5.1-.1,19.4-4.9.1v12.7l21.5-.1v-12.6h-4.7v-26l4.5-.1V69.71ZM117.91,96h-14.3l-.5-.6.3-.7,6.9-13.4.4-.4.5.3,1.8,3.5,1.7,3.4,1.7,3.4,1.8,3.6Z"></path><path class="cls-2" d="M206.11,80.31h4.6V69.41H203l9.3-6.6-10,4.4v-3.5h-1.2v3.6l-9.9-4.4,9.3,6.6h-7.7l-14,26.8-5.4-10.2-2-3.9-2-3.9-1.9-3.9-1.6-3.1-.9-1.8-21.6-.1.1,11.3h5.2l.2,12.8.1,13H139l-3.5-6.5-3-5.7-3-5.6-4-7.9,6.3-.1V69.41l-21.4-.1-16.2-.2-.1,11.5h5.5l-4.5,8.9-1.7,3.3-1.7,3.3-1.8,3.2-1.8,3.2-2.2,3.9-6.2.1-.4,1.3-4.1-2.2-2.6-1.4-2.6-1.4-1.1-.6-.5,1.4-1.4,2.1-2.5,2.1L61,109l-.9.2-.8.1-.8.4h-1.6l-.8-.1-.8-.1-.8-.2-.8-.2-.8-.2-.8-.3-.8-.4-.7-.4-.6-.4-.6-.4-.5-.5-.5-.5-.5-.6-.5-.6-.4-.6-.4-.6-.4-.7-1.1-2.6-.2-1.1-.2-1-.1-1-.1-1-.1-1v-2l.1-1,.1-1,.1-1,.2-1,.2-1,.3-.8.3-.7.4-.7.4-.7.4-.7.5-.6.5-.6.5-.6.6-.6.6-.5.7-.6,2.7-1.3,3.7-.9.7-.1.7-.1h1.4l.7.1.7.1.7.2.7.2.7.2.7.3.7.3.6.4.6.4.6.5.5.5.4.5.4.5.3.5.3.5.2.6.2.6.1.6v.2h12.5V69.21l-12.4-.1v5l-.3-.3-.9-.6-.9-.6-.9-.6-.1-.1-.8-.4-.8-.4-.9-.4-.9-.3-.9-.3-.9-.3-.9-.2-.9-.2-.9-.2-.9-.1-.9-.1h-2.7l-.9.1-1,.2-1.1.1-1,.1-1,.1-1,.2-1,.2-1,.3-1,.3-1,.3-1,.4-1,.4-.9.4-.9.5-.9.5-.9.5-.9.6-.8.6-.8.6-.8.7-.8.7-.7.7-.6.7-.6.7-.5.7-.5.8-.5.8-.4.8-.4.8-.4.8-.3.8-.3.9-.3.9-.2.9-.3,1-.2,1-.2,1-.1,1-.1,1-.1,1v2l.1,1,.1,1,.1,1,.2,1,.2,1,.2,1,.3,1,.3,1,.4,1,.4,1,.4.9.5.8.6.8.6.8.6.8.7.8.7.8.7.7.7.7.8.6.8.6.8.6.8.6.9.5.9.5.9.5.9.4.9.4.9.4,1,.3,1,.3,1,.3,1,.2,1,.2,1.3.2,1.2.2,1.3.2,1.3.1,1.3.1h3.9l1.3-.1,1.3-.1,1.3-.2,1.2-.2,1.2-.2,1.2-.3,1.2-.3,1.2-.4,1.2-.4,1.2-.4,1.1-.5.8-.4.8-.5.8-.5.8-.5.7-.6.7-.6.6-.5.8-.8.8-.8.2-.3.8.4-.1,8.1,14.7-.1h11.2l.1-12.9H98l3.6-6.4h18.7l3.4,6.6h-6.8l-.1,12.8,43.5-.1,3.5-.1-.1-12.8h-5l-.2-19.4.5-.1,4.5,8.4,2.2,4.1,2.1,4.1,2.1,4.2,2,4.2,3.8,7.4h1.2l9.9-19.2,7-13.1.5.1-.1,19.4-4.9.1v12.7l21.5-.1v-12.6h-4.7ZM117.91,96h-14.3l-.5-.6.3-.7,6.9-13.4.4-.4.5.3,1.8,3.5,1.7,3.4,1.7,3.4,1.8,3.6Z"></path><polygon points="222.31 111.51 222.21 112.21 222.11 112.91 222.01 113.61 222.01 113.91 221.91 114.11 221.91 114.31 221.81 114.61 221.61 114.81 221.51 115.01 221.31 115.21 221.21 115.41 221.01 115.61 220.81 115.71 220.51 115.91 220.31 116.01 220.11 116.11 219.81 116.11 219.51 116.11 219.31 116.11 219.01 116.11 218.71 116.01 218.41 115.91 218.11 115.81 217.81 115.71 217.61 115.61 217.31 115.41 217.11 115.31 216.91 115.11 216.71 114.91 216.51 114.61 216.31 114.71 216.11 117.41 216.21 117.61 216.51 117.81 216.81 118.01 217.11 118.21 217.41 118.41 217.71 118.51 218.11 118.61 218.41 118.71 218.81 118.81 219.11 118.91 219.51 118.91 219.81 118.91 220.21 118.91 220.61 118.81 220.91 118.81 221.31 118.71 221.61 118.61 222.01 118.51 222.91 117.81 223.11 117.61 223.41 117.41 223.61 117.21 223.71 117.01 223.91 116.71 224.11 116.51 224.21 116.21 224.31 115.91 224.41 115.71 224.41 115.41 224.51 115.11 224.51 114.81 224.61 113.51 224.71 112.11 224.81 110.81 224.91 109.51 225.01 108.21 225.21 106.91 225.11 106.81 222.41 106.81 220.01 107.11 219.71 107.21 219.41 107.31 219.11 107.51 218.91 107.61 218.61 107.81 218.31 108.01 218.11 108.21 217.91 108.41 217.71 108.71 217.51 108.91 217.31 109.21 217.21 109.51 217.01 109.81 216.91 110.11 216.81 110.31 216.71 110.71 216.71 111.01 216.61 111.31 216.61 111.61 216.61 111.91 216.71 112.31 216.71 112.61 216.71 112.71 216.71 112.81 216.81 112.81 216.91 112.91 216.91 113.01 217.01 113.01 219.51 113.01 219.41 112.81 219.31 112.61 219.31 112.41 219.21 112.21 219.21 111.91 219.21 111.71 219.21 111.51 219.21 111.21 219.31 111.01 219.41 110.81 219.51 110.61 219.61 110.41 219.71 110.21 219.91 110.01 220.11 109.91 220.31 109.81 220.51 109.61 220.71 109.61 220.91 109.51 221.11 109.41 221.41 109.41 221.61 109.41 221.91 109.41 222.31 109.41 222.31 110.11 222.31 110.81 222.31 111.51"></polygon><polygon points="242.01 117.31 241.61 117.21 241.21 117.31 240.81 117.51 240.51 117.81 240.41 118.11 240.41 118.61 240.51 118.91 240.81 119.31 241.21 119.41 241.61 119.51 242.01 119.41 242.31 119.11 242.51 118.81 242.61 118.41 242.51 117.91 242.31 117.61 242.01 117.31"></polygon><polygon points="235.61 115.01 235.61 114.81 235.71 114.51 235.81 114.31 235.91 114.11 236.01 113.91 236.21 113.81 236.21 113.61 236.31 113.51 236.31 113.51 236.51 113.41 236.61 113.31 236.71 113.31 236.81 113.31 236.91 113.31 237.01 113.41 237.11 113.51 237.21 113.51 237.31 113.61 237.31 114.91 237.41 115.01 239.31 114.91 239.31 114.61 239.41 114.41 239.41 114.11 239.41 113.91 239.31 113.61 239.31 113.41 239.21 113.21 239.11 112.91 239.01 112.71 238.91 112.51 238.81 112.31 238.61 112.11 238.51 111.91 238.31 111.81 238.11 111.61 237.91 111.51 237.71 111.41 237.41 111.31 237.21 111.31 237.01 111.21 236.71 111.21 236.51 111.21 236.21 111.31 236.01 111.31 235.71 111.41 234.91 111.81 234.01 112.51 233.81 112.81 233.71 113.11 233.51 113.41 233.41 113.71 233.31 114.01 233.21 114.31 233.11 114.61 233.01 115.01 233.01 115.31 233.01 115.71 233.01 116.01 233.11 116.31 232.91 116.51 232.71 116.61 232.61 116.71 232.41 116.81 232.31 116.91 232.21 116.91 232.21 116.91 232.11 116.91 232.01 116.91 231.91 116.81 231.91 116.81 231.81 116.71 232.11 113.41 232.11 113.21 232.11 113.11 232.11 112.91 232.11 112.71 232.01 112.51 231.91 112.31 231.91 112.21 231.71 112.01 231.51 111.91 231.31 111.81 231.11 111.71 230.91 111.61 230.71 111.51 230.51 111.51 230.21 111.51 230.01 111.51 229.81 111.51 229.61 111.61 229.31 111.61 229.11 111.71 228.91 111.81 228.71 112.01 228.61 112.11 228.41 112.31 228.41 112.11 228.51 111.31 228.41 111.21 226.01 111.21 226.01 111.31 225.81 113.21 225.71 115.21 225.51 117.11 225.41 119.11 225.51 119.11 227.71 119.11 227.91 119.11 227.91 118.51 228.01 118.11 228.01 117.51 228.01 117.01 228.01 116.81 228.11 116.51 228.11 116.11 228.21 115.81 228.31 115.61 228.41 115.31 228.51 115.01 228.61 114.81 228.81 114.51 228.81 114.41 228.91 114.31 228.91 114.21 229.01 114.21 229.11 114.11 229.21 114.11 229.31 114.11 229.41 114.11 229.51 114.11 229.61 114.21 229.71 114.31 229.71 114.31 229.71 115.31 229.61 116.31 229.61 117.31 229.51 118.31 229.61 118.41 229.71 118.61 229.81 118.71 230.01 118.91 230.11 119.01 230.31 119.11 230.51 119.21 230.61 119.31 230.81 119.31 231.01 119.31 231.21 119.31 231.41 119.31 231.61 119.31 231.71 119.21 231.91 119.11 233.41 118.11 233.51 118.11 233.71 118.31 234.01 118.51 234.21 118.61 234.41 118.81 234.71 118.91 234.91 119.01 235.21 119.11 235.51 119.21 235.71 119.31 236.01 119.41 236.31 119.41 236.61 119.51 236.91 119.51 237.21 119.41 237.51 119.41 237.81 119.31 238.01 119.21 238.31 119.11 238.61 119.01 238.81 118.81 239.11 118.71 239.21 118.11 239.31 117.61 239.31 117.11 239.41 116.51 239.31 116.41 239.31 116.41 238.21 117.11 238.01 117.21 237.91 117.21 237.71 117.31 237.51 117.31 237.31 117.41 237.11 117.41 236.91 117.31 236.71 117.31 236.51 117.21 236.31 117.11 236.21 116.91 236.01 116.71 235.91 116.51 235.81 116.31 235.71 116.11 235.61 115.91 235.61 115.71 235.51 115.51 235.51 115.21 235.61 115.01"></polygon></g></g></svg>